<?xml version="1.0" encoding="UTF-8"?>
<svg xmlns="http://www.w3.org/2000/svg" xmlns:xlink="http://www.w3.org/1999/xlink" version="1.1" width="512" height="512" x="0" y="0" viewBox="0 0 340 340" style="enable-background:new 0 0 512 512" xml:space="preserve" class="">
  <g>
    <path d="M130.419 201.388a75.233 75.233 0 0 1-14.05-27.074 4 4 0 0 0-7.7 2.169 83.347 83.347 0 0 0 15.56 29.973 53.086 53.086 0 0 0 12.285 10.819c33.624 21.781 47.794 57.921 52.325 72.449a28.581 28.581 0 0 0 19.077 19.034l.332.1a17.178 17.178 0 0 0 4.743.665 17.568 17.568 0 0 0 13.122-5.894c26.5-29.937 31.565-94.25 32.227-129.921a71.805 71.805 0 0 0-6.492-31.04A90.19 90.19 0 0 1 244 115.127a4 4 0 0 0-7.957.824 98.1 98.1 0 0 0 8.513 30 63.881 63.881 0 0 1 5.787 27.6c-.517 27.832-4.5 95.7-30.219 124.766a9.5 9.5 0 0 1-9.7 2.832l-.228-.066a20.6 20.6 0 0 1-13.715-13.748c-4.791-15.357-19.8-53.58-55.612-76.78a45.084 45.084 0 0 1-10.45-9.167z" fill="#1422c1" opacity="1" data-original="#000000" class=""/>
    <path d="M299.4 80.868a29.605 29.605 0 0 0-4.736-7.887 22 22 0 0 0-23.8-6.513c-4.285 1.458-11.437 2.7-21.181.34a46.7 46.7 0 0 1-13.927-6.04C216.67 48.693 149.648 10.821 88.45 30.489a14.459 14.459 0 0 0-9.6 10.237l-.061.274a14.094 14.094 0 0 0-.349 3.587C60.659 53.82 51.171 65.551 46.315 73.954a29.783 29.783 0 0 0 2.927 33.946c.837 1 1.729 1.987 2.658 2.967a26.591 26.591 0 0 0-2.677 2.025c-8.954 7.731-10.129 19.176-10.274 21.373-1.025 5-.131 12.408 2.673 22.059a74.242 74.242 0 0 1 2.846 16.5c2.547 45.027-.689 107.9-.722 108.529a4 4 0 0 0 3.785 4.2q.106.006.213.006a4 4 0 0 0 3.991-3.791c.033-.634 3.292-63.932.72-109.4a82.26 82.26 0 0 0-3.15-18.278 62.681 62.681 0 0 1-2.757-14.667 43.2 43.2 0 0 0 21.56-2.871 4 4 0 1 0-2.988-7.42 35.35 35.35 0 0 1-17.7 2.343 23 23 0 0 1 7.03-12.531c3.923-3.389 9.246-5.074 15.86-5.033-.754 7.992 4.233 14.239 4.49 14.554.018.022.041.037.059.058 3.882 5.078 13.4 5.8 15.845 5.9 10.407 1.479 16.83 5.79 20.179 8.805-10.694 7-37.523 27.885-40.635 62.865 0 .045-.007.089-.009.134l-2.593 46.964a4 4 0 0 0 3.774 4.215h.224a4 4 0 0 0 3.991-3.779l2.588-46.9a68.057 68.057 0 0 1 13.024-33.776 62.14 62.14 0 0 0-3.234 11.177c-2.339 12.341-3.525 27.738-3.525 45.7l-1.281 81.182a4 4 0 0 0 3.936 4.063h.065a4 4 0 0 0 4-3.936L92.49 229.9c0-17.529 1.138-32.424 3.385-44.275a54.826 54.826 0 0 1 13.8-27.148c6.848-7.359 10.372-11.636 10.519-11.815l.01-.014c.031-.038.055-.08.084-.119a4.116 4.116 0 0 0 .29-.443c.02-.035.048-.067.067-.1.007-.014.011-.029.018-.043a4.1 4.1 0 0 0 .244-.578l.027-.088.007-.021c2.489-7.715 4.062-20.657-.666-31.287a28.687 28.687 0 0 1 16.008-6.288c1.925.241 11.3 1.875 12.3 10.91a12.391 12.391 0 0 1-1.818 6.887 4 4 0 1 0 6.967 3.93 20.064 20.064 0 0 0 2.79-11.8c-1.245-11.169-10.291-15.981-16.819-17.455-.272-2.5-.228-6.4 2.036-9.2a5.125 5.125 0 0 1 5.936-1.412c7.458 3.109 20.445 10.59 24.107 25.805.016 2.42-.331 16-9.623 25.914-2.454 2.21-27.755 25.97-15.757 55.121.4 1.037 3.215 7.619 12.452 15.825l.94.833c7.06 6.251 21.748 19.258 31.531 37.69a4 4 0 0 0 7.067-3.75c-10.462-19.711-25.883-33.366-33.294-39.929l-.931-.824c-8.027-7.132-10.294-12.707-10.3-12.73a3.039 3.039 0 0 0-.048-.121c-10.179-24.662 12.8-45.376 13.777-46.241.092-.081.18-.165.263-.254 9.569-10.1 11.5-22.878 11.856-28.9 3.739-1.327 9.122-4.879 11.527-14.412 1.159-4.59 9.388-9.719 21.588-13.528a401.216 401.216 0 0 1 5.973 3.406c.725.42 17.974 10.33 36.391 13.577a10.778 10.778 0 0 1 6.191 3.454 20.62 20.62 0 0 0 15.776 7.186 23.83 23.83 0 0 0 3.792-.308A22.74 22.74 0 0 0 294.262 110a27.7 27.7 0 0 0 5.138-29.132zm-208.214 45.56c-3.9-.132-9.009-1.346-10-2.771-.03-.044-.07-.077-.1-.12s-.053-.09-.087-.132-4.373-5.621-2.068-11.4c1.312-1.991 8.332-11.147 23.135-5.146 13.961 5.661 14.071 20.454 12.747 29.233a46.3 46.3 0 0 0-23.213-9.629 4.137 4.137 0 0 0-.414-.035zm92.291-24.828c-1.2 4.764-3.281 7.051-4.982 8.149-5.5-16.151-19.49-24.166-27.748-27.607a13.165 13.165 0 0 0-15.229 3.761c-3.752 4.632-4.144 10.394-3.84 14.321A36.257 36.257 0 0 0 116 107.137a28.007 28.007 0 0 0-10.928-7.692c-15.93-6.459-26.889.579-31.684 6.576a39.4 39.4 0 0 0-13.767 1.28 60.836 60.836 0 0 1-4.252-4.548 21.757 21.757 0 0 1-2.129-24.8c4.215-7.294 12.406-17.441 27.763-25.683a14.511 14.511 0 0 0 12.18 6.218 69.7 69.7 0 0 1 2.8 12.242 26.56 26.56 0 0 0 15.37 20.682 53.548 53.548 0 0 0 10.2 3.36 4 4 0 1 0 1.752-7.806 45.586 45.586 0 0 1-8.674-2.852 18.847 18.847 0 0 1-10.721-14.509 79.39 79.39 0 0 0-2.717-12.329c12.354-1.9 31.344-3.124 48.52 2.785 17.785 6.118 39.435 17.108 53.7 24.8-9.203 3.667-18.005 9.088-19.936 16.739zm104.9 2.975a14.933 14.933 0 0 1-8.706 4.87 12.766 12.766 0 0 1-12.069-4.038c-.781-1.479-3.217-7.186 2.137-12.856a4.85 4.85 0 0 0 .117-.129 17.963 17.963 0 0 1 2.036-1.876 21.221 21.221 0 0 0 1.9-1.349 15.616 15.616 0 0 1 4.847-2.054 4 4 0 1 0-1.736-7.809 24.813 24.813 0 0 0-9.557 4.618 12.885 12.885 0 0 1-8.6 1.742c-9.851-1.519-19.086-7.309-19.195-7.379a4 4 0 0 0-4.292 6.752c.431.275 10.711 6.751 22.268 8.534a20.833 20.833 0 0 0 2.078.2 18.272 18.272 0 0 0-1.185 5.767 18.7 18.7 0 0 0-1.851-.435c-16.99-2.995-33.6-12.526-33.75-12.61-1.643-.963-40.6-23.741-70.509-34.03A96.924 96.924 0 0 0 121 47.719a142.4 142.4 0 0 0-26.8 2.655 6.555 6.555 0 0 1-5.985-1.891 6.294 6.294 0 0 1-1.531-2.59c-.006-.022-.017-.043-.023-.066a6.035 6.035 0 0 1-.073-3.02l.044-.187a6.406 6.406 0 0 1 4.268-4.514c57.89-18.6 122.237 17.817 140.578 29.421a54.685 54.685 0 0 0 16.322 7.056c11.609 2.813 20.349 1.257 25.639-.541a13.947 13.947 0 0 1 15.1 4.083A21.634 21.634 0 0 1 292 83.888a19.666 19.666 0 0 1-3.619 20.69z" fill="#1422c1" opacity="1" data-original="#000000" class=""/>
    <path d="M138.2 142.2a3.989 3.989 0 0 0 1.83-.445q.748-.387 1.451-.781a4 4 0 1 0-3.913-6.974q-.582.327-1.2.647a4 4 0 0 0 1.832 7.553zM197.826 266.315c.165.534.324 1.074.479 1.616a4 4 0 1 0 7.695-2.192q-.255-.894-.525-1.778a4 4 0 0 0-7.647 2.354zM226.777 139.029a4 4 0 1 0 6.192-5.066c-15.687-19.172-37.4-12.227-46.693-5.875a4 4 0 0 0 4.507 6.609c.854-.575 21.068-13.912 35.994 4.332z" fill="#1422c1" opacity="1" data-original="#000000" class=""/>
  </g>
</svg>
