<svg id="Capa_1" enable-background="new 0 0 512 512" height="512" viewBox="0 0 512 512" width="512" xmlns="http://www.w3.org/2000/svg"><g><path d="m436.667 135.606-14.036 28.073c-2.396 4.791-1.307 10.391 2.708 13.935 2.215 1.954 4.938 2.948 7.684 2.948 2.232 0 4.48-.657 6.479-1.99l48.902-32.602c3.95-2.633 6.484-6.853 6.952-11.576.468-4.725-1.189-9.359-4.546-12.717l-12.144-12.143 11.231-18.72c3.732-6.223 2.756-14.151-2.374-19.28l-17.211-17.211c-3.461-3.46-8.225-5.1-13.09-4.504-4.857.598-9.087 3.348-11.605 7.545l-26.357 43.929c-3.731 6.221-2.756 14.148 2.374 19.281zm-4.544-26.596 26.357-43.929c.048-.081.196-.327.575-.374.039-.005.075-.007.11-.007.309 0 .48.17.539.23l17.212 17.212c.255.254.303.647.117.956l-12.579 20.965c-2.755 4.589-2.035 10.438 1.749 14.224l13.998 13.998c.066.064.263.262.227.631-.037.368-.27.523-.346.574l-38.38 25.587 9.464-18.929c2.243-4.489 1.366-9.889-2.182-13.438l-16.743-16.743c-.255-.254-.304-.649-.118-.957z"/><path d="m495.355 244.961c-.468-4.725-3.001-8.945-6.952-11.579l-48.903-32.603c-4.455-2.968-10.146-2.583-14.162.961-4.014 3.544-5.103 9.144-2.707 13.934l14.036 28.072-15.033 15.033c-5.13 5.13-6.105 13.059-2.374 19.281l26.357 43.929c2.518 4.197 6.748 6.947 11.605 7.545.657.081 1.312.121 1.963.121 4.161 0 8.134-1.633 11.127-4.625l17.211-17.211c5.13-5.131 6.106-13.06 2.374-19.281l-11.231-18.72 12.144-12.143c3.356-3.357 5.013-7.99 4.545-12.714zm-15.152 2.107-13.999 13.997c-3.784 3.785-4.504 9.635-1.75 14.222l12.58 20.968c.186.309.137.703-.118.957l-17.211 17.211c-.067.067-.266.27-.65.224-.379-.047-.527-.293-.575-.374l-26.357-43.928c-.185-.31-.137-.704.118-.959l16.744-16.744c3.549-3.55 4.425-8.949 2.181-13.439l-9.464-18.928 38.38 25.587c.077.051.31.206.347.575.036.37-.162.567-.226.631z"/><path d="m355.444 137.657-4.292-.537-24.383-31.697c-11.021-14.326-28.939-21.377-46.775-18.41-13.409 2.238-27.161-2.171-36.776-11.786l-67.671-67.67c-4.381-4.378-12.055-7.557-18.247-7.557h-124.936c-5.988 0-11.387 3.32-14.088 8.665-2.7 5.345-2.172 11.66 1.381 16.481l28.632 38.855c2.458 3.334 7.152 4.043 10.487 1.589 3.335-2.457 4.046-7.152 1.589-10.487l-28.632-38.855c-.093-.126-.286-.388-.069-.817.218-.431.544-.431.7-.431h124.936c2.175 0 6.104 1.627 7.641 3.165l67.67 67.67c13.034 13.034 31.67 19 49.851 15.976 12.352-2.061 24.78 2.828 32.42 12.76l15.333 19.933-4.457-.557c-8.782-1.102-17.67 1.002-25.03 5.91l-4.825 3.217c-8.719 5.812-14.57 15.096-16.053 25.47l-.366 2.565-25.036-50.948c-1.827-3.717-6.321-5.248-10.039-3.424-3.718 1.827-5.25 6.321-3.424 10.039l30.911 62.904c3.396 6.912 5.492 14.305 6.23 21.973 1.983 20.605-6.216 40.949-21.933 54.42l-6.815 5.842c-13.139 11.262-30.552 16.735-47.767 15.005l-27.099-2.716c-14.572-1.461-28.301-7.968-38.656-18.324l-23.73-23.729c-4.285-4.284-7.327-9.657-8.797-15.539-2.83-11.318.337-23.07 8.471-31.434 11.881-12.216 16.609-30.053 12.34-46.55l-.3-1.161c-1.646-6.36-4.458-12.269-8.356-17.559l-34.263-46.5c-2.457-3.333-7.153-4.044-10.487-1.589-3.335 2.457-4.046 7.152-1.589 10.487l34.264 46.498c2.757 3.742 4.745 7.921 5.91 12.419l.3 1.16c2.966 11.46-.318 23.85-8.571 32.335-11.782 12.114-16.369 29.135-12.27 45.529 2.13 8.519 6.536 16.303 12.743 22.509l23.729 23.729c.769.768 1.554 1.518 2.352 2.252-2.96 2.452-5.341 5.641-6.843 9.397l-3.753 9.382c-2.901 7.255-2.019 15.449 2.362 21.919 1.939 2.864 4.449 5.215 7.319 6.948l-2.744 3.843c-6.586 9.223-8.836 20.469-6.866 31.062l-4.709-7.064c-5.764-8.646-14.367-15.217-24.226-18.503-10.27-3.422-21.633.477-27.635 9.482l-5.756 8.634c-2.994 4.49-5.176 9.423-6.486 14.661l-2.392 9.565c-3.201 12.809-.838 26.456 6.486 37.441 3.824 5.737 6.209 12.396 6.895 19.256l1.226 12.264c.412 4.121 4.101 7.129 8.209 6.717 4.122-.412 7.129-4.088 6.717-8.209l-1.227-12.264c-.93-9.293-4.159-18.312-9.34-26.084-4.984-7.477-6.594-16.766-4.414-25.483l2.391-9.564c.893-3.565 2.378-6.923 4.415-9.979l5.756-8.634c2.262-3.392 6.541-4.859 10.41-3.571 6.71 2.236 12.566 6.709 16.489 12.593l14.956 22.435c5.09 7.635 5.703 17.476 1.6 25.682-5.73 11.46-8.76 24.291-8.76 37.105v48.451c0 .432-.352.783-.783.783h-25.638c-.404 0-.739-.304-.779-.705l-1.576-15.765c-.412-4.121-4.066-7.118-8.209-6.717-4.122.412-7.129 4.088-6.717 8.209l1.576 15.766c.812 8.101 7.563 14.21 15.705 14.21h25.638c8.703 0 15.783-7.08 15.783-15.783v-48.451c0-10.498 2.481-21.009 7.176-30.396 4.391-8.782 5.362-18.742 3.056-28.012 11.104 16.447 17.794 35.359 19.46 55.348l3.769 45.227c1.031 12.374 11.566 22.067 23.983 22.067h96.352c10.823 0 20.371-7.293 23.219-17.734l19.319-70.84c.848-3.105 2.975-5.732 5.837-7.208 7.54-3.887 12.8-11.214 14.068-19.601l2.77-18.292c2.64-17.426-.273-34.93-8.217-50.361 8.641-2.599 16.388-7.905 21.893-15.246 10.553-14.069 11.432-32.85 2.241-47.844l-.036-.06c5.324-3.835 9.65-9.083 12.351-15.385l11.86-27.675c3.958-9.234 5.965-19.011 5.965-29.058v-18.446c.001-18.558-13.887-34.29-32.304-36.593zm-10.624 135.057c5.956 9.717 5.387 21.887-1.452 31.005-5.188 6.918-13.448 11.048-22.096 11.048h-40.424c-4.143 0-7.5 3.357-7.5 7.5s3.357 7.5 7.5 7.5h36.4c8.654 13.8 12.069 30.096 9.613 46.312l-2.771 18.293c-.551 3.642-2.835 6.825-6.109 8.513-6.589 3.396-11.485 9.443-13.435 16.594l-19.319 70.84c-1.073 3.935-4.671 6.682-8.748 6.682h-19.414l.051-.231c4.577-20.595 2.485-41.679-6.05-60.972-8.535-19.294-22.729-35.025-41.047-45.492-3.595-2.054-8.178-.806-10.232 2.791-2.056 3.596-.806 8.178 2.791 10.232 31.811 18.178 47.844 54.421 39.895 90.186l-.774 3.485h-61.573c-4.678 0-8.647-3.652-9.036-8.315l-3.769-45.226c-2.253-27.046-12.628-52.362-30.003-73.212-7.459-8.95-7.939-21.823-1.169-31.305l6.552-9.176h96.731c4.143 0 7.5-3.357 7.5-7.5s-3.357-7.5-7.5-7.5h-100.591c-2.872 0-5.443-1.364-7.053-3.742s-1.922-5.272-.856-7.939l3.753-9.382c1.077-2.694 3.399-4.578 6.153-5.152 9.778 5.776 20.767 9.432 32.178 10.576l27.099 2.716c2.583.259 5.166.387 7.746.387 18.673 0 37.015-6.702 51.278-18.928l6.816-5.842c12.245-10.495 20.791-24.367 24.826-39.566 1.01 1.403 2.052 2.785 3.165 4.122l12.948 15.537-1.318 3.314c-3.733 9.386-10.765 17.041-19.798 21.558-3.705 1.852-5.207 6.357-3.354 10.061 1.314 2.629 3.962 4.148 6.714 4.148 1.127 0 2.271-.256 3.348-.794 11.941-5.969 21.306-15.963 26.516-28.222 5.19 2.702 11.008 4.164 17.025 4.164 2.632 0 5.213-.29 7.718-.825zm27.929-80.016c0 8.004-1.599 15.792-4.752 23.15l-11.86 27.675c-3.452 8.056-11.347 13.261-20.11 13.261-6.513 0-12.64-2.869-16.809-7.873l-13.748-16.496c-10.628-12.756-15.378-29.497-13.029-45.934l2.259-15.816c.879-6.155 4.351-11.663 9.523-15.111l4.825-3.217c3.61-2.407 7.839-3.675 12.14-3.675.901 0 1.808.056 2.71.169l29.686 3.711c10.927 1.365 19.166 10.699 19.166 21.71v18.446z"/><path d="m159.953 183.025c-3.706-1.855-8.211-.351-10.062 3.354-11.171 22.341-5.121 49.881 14.383 65.485l12.49 9.992c1.383 1.106 3.038 1.644 4.681 1.644 2.2 0 4.38-.963 5.861-2.815 2.588-3.234 2.064-7.954-1.171-10.542l-12.49-9.992c-14.019-11.215-18.365-31.008-10.338-47.063 1.852-3.705.35-8.21-3.354-10.063z"/></g></svg>