<svg viewBox="0 0 64 64" xmlns="http://www.w3.org/2000/svg"><g id="Layer_3" data-name="Layer 3"><g fill="none" stroke="#4c4c4c" stroke-miterlimit="10" stroke-width="2"><path d="m8 48h-1.36042a5.27934 5.27934 0 0 0 -4.22341 2.11165 6.78452 6.78452 0 0 0 -1.09827 2.02723 6.83172 6.83172 0 0 0 .63069 5.54376 3.94514 3.94514 0 0 0 3.40925 1.83116h1.55325a3.22564 3.22564 0 0 0 1.8693-.497c6.83221-4.4779 9.65441-4.48311 15.21961-5.0168h12.5l6.5 2 2.15887 1.68612a4.18906 4.18906 0 0 0 3.21549.8389l1.62564-4.52502"/><path d="m24 54-2-4v-2.58579a3.41421 3.41421 0 0 1 3.41419-3.41421h2.58581l7.43952 1.83933a2.92354 2.92354 0 0 1 1.33783.74345l1.52365 1.48355 9.49666 5.37161 2.20234.56206 4.48444 1.38741 3.68711.61259a6.82857 6.82857 0 0 1 4.37462 1.5853 1.33387 1.33387 0 0 1 .45383 1.02917 1.38553 1.38553 0 0 1 -1.38555 1.38553h-10.42939a3.41551 3.41551 0 0 1 -2.81071-1.475"/><path d="m28 44v10"/><path d="m34 54v-.94749a12.9307 12.9307 0 0 1 1.36512-5.78276l.63488-1.26975"/><path d="m58 56v4"/><path d="m22 50h-1.68163a9.8209 9.8209 0 0 1 -4.392-1.03682 9.12345 9.12345 0 0 0 -4.08013-.96318h-2.84624v-1.1596a7.84067 7.84067 0 0 1 1.8192-5.02177"/><path d="m14 4v19.05573a11.98284 11.98284 0 0 1 -1.24394 5.4334 25.416 25.416 0 0 0 -2.59 8.61042 8.87709 8.87709 0 0 0 .87528 4.98308 3.46854 3.46854 0 0 0 3.10232 1.91737 2.837 2.837 0 0 0 2.69527-1.25743 3.85778 3.85778 0 0 1 3.0253-1.743 3.35722 3.35722 0 0 0 2.41649-.88268 2.43322 2.43322 0 0 0 .66058-2.25447c-.8141-3.69622-1.9413-9.69864-1.9413-13.48342v-20.379"/><path d="m22.00742 40.47a4.83629 4.83629 0 0 1 1.99258 3.53"/></g></g></svg>