<svg viewBox="0 0 64 64" xmlns="http://www.w3.org/2000/svg"><g id="icons" fill="none" stroke="#4c4c4c" stroke-miterlimit="10" stroke-width="2"><path d="m9 62.0296v-1.8349l2.3875-19.321.59891-4.8737.33053-2.68969a4.22862 4.22862 0 0 1 1.60227-2.40883c.652-.48014 2.32622-1.73114 2.05667-5.02389a7.17021 7.17021 0 0 0 -7.22988-6.41212h-.62851a7.06366 7.06366 0 0 0 -7.11749 7.02543 4.2985 4.2985 0 0 0 .26872 1.6781 16.11979 16.11979 0 0 1 1.004 3.36731l.72728 4.46369v10l-1 12v4"/><path d="m15.98131 28.34268h1.56557a3.43958 3.43958 0 0 1 3.31147 2.20332l5.64029 15.83226s2.37934 5.92958 6.50881 8.83765l9.37752 5.716a3.32974 3.32974 0 0 0 4.74966-1.42586c1.09483-2.33381 2.30287-5.07461 2.35384-5.3053 1.13456-5.13539.68443-22.5244.68443-22.5244l.80841-9.42251v-8.25384m-29.52083 6h-5.46048"/><path d="m17.85417 11a11.96426 11.96426 0 0 0 4.02657-.73523c9.22506-3.30187 12.88526 1.69961 26.77055 1.69961 5.01951 0 8.10843-.67171 13.683-2.785a.998.998 0 0 0 .66571-.92379.93292.93292 0 0 0 -.10906-.43648l-2.23094-4.25024a1.10687 1.10687 0 0 0 -.98557-.56887c-1.3885 0-2.3023 4.04319-10.745 4.04319-9.417 0-14.60356-2.408-20.41081-2.408-6.03252 0-10.66448 2.61629-10.66448 3.82768z"/><path d="m17.8827 7.90586c-1.89908-1.40367-6.789-1.74312-8.93577-1.74312-2.31192 0-6.55044.56422-6.71558 3.867-.30094 6.01879 10.98163 3.30275 15.2752 9.4954"/><path d="m17.87 11h-10.87"/><path d="m30 18 9.717-6.75"/><path d="m14.33116 11c0 2 3.98794 4 6.66884 4h6.51981"/><path d="m11.98926 36v-9.79639a3.19619 3.19619 0 0 0 -3.24317-2.73828h-.62841a3.27267 3.27267 0 0 0 -.59753.05458 3.54941 3.54941 0 0 1 -3.37527-1.18262l-.73921-.87642"/><path d="m27.98341 20.84234h-1.65419l-3.07193 3.07189a2 2 0 0 1 -2.82837-2.82844l5.33714-5.33709a2.48019 2.48019 0 0 1 4.23394 1.75377v1.3407"/></g></svg>