<svg viewBox="0 0 64 64" xmlns="http://www.w3.org/2000/svg"><g id="icons"><g fill="none" stroke="#4c4c4c" stroke-miterlimit="10" stroke-width="2"><path d="m35 32h3.20461a4.33444 4.33444 0 0 1 3.06492 1.26953c2.71623 2.71623 6.07357 3.73047 10.95177 3.73047h11.7787"/><path d="m64 45h-10.94331c-2.42023 0-7.95784.36478-11.91511 3.18463a4.36111 4.36111 0 0 1 -2.53058.81537h-2.0437a3.70658 3.70658 0 0 1 -3.73748-3.672v-1.95892"/><path d="m44.68941 46.39679c2.31192 1.65138 6.72843 2.56861 9.90823 2.56861h9.40236"/><path d="m25.47844 30.37828c-6.55044-5.17428-12.68781-18.7735-15.30731-24.27976"/><path d="m64 54.881h-26.47576a21.08652 21.08652 0 0 0 -6.22969 1.01168 10.47737 10.47737 0 0 1 -4.25643.51932 11.27882 11.27882 0 0 1 -9.72895-9.61913 11.55733 11.55733 0 0 1 -.04344-2.71483"/><path d="m20.95966 32.57031a8.0479 8.0479 0 0 1 13.54034 5.88229c0 4.44472-3.60315 8.5474-8.04786 8.5474-13.90946 0-15.32523-14.80428-17.5746-19.616l-7.89092-16.87957"/><path d="m5.63463 8.19484c1.93241 4.062 5.92316 12.90666 10.67888 19.59629 2.5695 3.61438 7.21671 7.08715 11.65135 7.08715"/></g></g></svg>