<?xml version="1.0"?>
<svg xmlns="http://www.w3.org/2000/svg" viewBox="0 0 64 64" width="512" height="512"><g id="_21-Knee" data-name="21-Knee"><path d="M36.048,40H33a4,4,0,0,1-4-4c0-.454-.772-2.061-3.666-5.2A5.006,5.006,0,0,1,24,27.4V26.228a5.008,5.008,0,0,1,2.7-4.441A14.236,14.236,0,0,1,33,20c6.991,0,11,2.552,11,7,0,4.288-3.916,9.724-5.6,11.862A2.975,2.975,0,0,1,36.048,40ZM33,22a12.268,12.268,0,0,0-5.373,1.559A3.012,3.012,0,0,0,26,26.228V27.4a3.011,3.011,0,0,0,.8,2.044C31,34,31,35.505,31,36a2,2,0,0,0,2,2h3.048a.989.989,0,0,0,.782-.375C38.042,36.084,42,30.766,42,27,42,22.487,35.706,22,33,22Z"/><path d="M23.976,3.022l-2-.044C21.992,2.3,22,1.637,22,1h2C24,1.652,23.992,2.329,23.976,3.022Z"/><path d="M21,37a4,4,0,0,1-4-4V31.38A8.641,8.641,0,0,1,15,26a4.476,4.476,0,0,1,1.65-3.248,15.422,15.422,0,0,0,4.8-9.987c.22-2.865.377-5.49.467-7.8l2,.078c-.091,2.339-.249,4.989-.471,7.878A17.421,17.421,0,0,1,18.028,24.2,2.552,2.552,0,0,0,17,26a6.715,6.715,0,0,0,1.71,4.3A1.01,1.01,0,0,1,19,31v2a2,2,0,0,0,1.907,2c.158-.182.8-1.147,1.029-5.115A3.07,3.07,0,0,1,25,27v2a1.068,1.068,0,0,0-1.068,1C23.647,34.841,22.742,37,21,37Z"/><path d="M21,37V35c1.522,0,5.777-.467,7.169-2.555l1.664,1.11C27.562,36.961,21.267,37,21,37Z"/><path d="M42,38a5.306,5.306,0,0,1-3.707-1.293l1.4-1.426A3.452,3.452,0,0,0,42,36a7.909,7.909,0,0,0,2.364-.426C43.16,34.2,41.741,33,41,33V31c2.379,0,5.249,3.665,5.8,4.4a1,1,0,0,1-.353,1.5A11.347,11.347,0,0,1,42,38Z"/><path d="M47,36l-2,0a9.831,9.831,0,0,1,2.441-6.4A5.267,5.267,0,0,0,49,26a6.516,6.516,0,0,0-4.316-6.052C40.937,18.7,37,6.017,37,1h2c0,5.168,4.132,16.323,6.316,17.052A8.562,8.562,0,0,1,51,26a7.139,7.139,0,0,1-2,4.847,9.177,9.177,0,0,0-1.108,1.6A9.049,9.049,0,0,0,47,36Z"/><path d="M28,63H26c0-3.226-3.045-8.044-5.492-11.917C18.268,47.538,17,45.461,17,44a13.55,13.55,0,0,1,1.01-5.239A2.892,2.892,0,0,1,21,36a24.679,24.679,0,0,1,4.593.652,2.963,2.963,0,0,0,2.283-.438l1.569-1.046,1.11,1.664-1.57,1.046a5,5,0,0,1-3.808.73A23.744,23.744,0,0,0,21,38a.919.919,0,0,0-1,1.012,1.074,1.074,0,0,1-.105.435A11.314,11.314,0,0,0,19,44c0,.953,1.7,3.643,3.2,6.015C24.918,54.318,28,59.2,28,63Z"/><path d="M27,42a21.549,21.549,0,0,1-8.447-2.1l.894-1.79A19.791,19.791,0,0,0,27,40a6.04,6.04,0,0,0,3.562-.974A6.173,6.173,0,0,1,34,38v2a4.194,4.194,0,0,0-2.438.759A8,8,0,0,1,27,42Z"/><path d="M40,63H38c0-6.644,5.138-13.8,7.348-16.575A2.971,2.971,0,0,0,46,44.558V44h2v.558a5.009,5.009,0,0,1-1.089,3.113C44.833,50.277,40,56.988,40,63Z"/><path d="M48,42H46v-.859a3,3,0,0,0-1.336-2.5l-1.219-.813,1.11-1.664,1.218.812A4.994,4.994,0,0,1,48,41.141Z"/><path d="M35,62H33V56a.969.969,0,0,1,.01-.142c.032-.225.824-5.574,3.774-9.107A4.935,4.935,0,0,1,40.592,45H47v2H40.592a2.94,2.94,0,0,0-2.273,1.032C35.892,50.94,35.1,55.481,35,56.076Z"/><path d="M22,63H20a24.594,24.594,0,0,0-4.223-13.621A3.976,3.976,0,0,1,15,47c0-1.118,0-2.8,1.356-3.771l.937-.936,1.414,1.414-1,1a.953.953,0,0,1-.152.125C17.083,45.146,17,45.781,17,47a2.016,2.016,0,0,0,.423,1.242A26.646,26.646,0,0,1,22,63Z"/><rect x="23" y="54" width="2" height="9"/><path d="M30,58c-3.739,0-5.515-5.938-5.97-7.757a4.01,4.01,0,0,0-2.321-3.074,7.412,7.412,0,0,1-4.087-3.486,9.846,9.846,0,0,1-.571-1.367l1.9-.632a7.9,7.9,0,0,0,.454,1.089A5.533,5.533,0,0,0,22.425,45.3a5.962,5.962,0,0,1,3.545,4.456C26.6,52.267,28.189,56,30,56Z"/></g></svg>
