<svg id="Layer_1" enable-background="new 0 0 500 500" height="500" viewBox="0 0 500 500" width="500" xmlns="http://www.w3.org/2000/svg"><g><g><path d="m28.961 478.512c-3.839 0-7.678-1.465-10.606-4.394-5.858-5.857-5.858-15.355 0-21.213l418.973-418.973c5.857-5.857 15.355-5.857 21.213 0s5.858 15.355 0 21.213l-418.974 418.973c-2.928 2.929-6.767 4.394-10.606 4.394z" fill="#efc58b"/><path d="m431.994 60.479c-10.606-10.606-29.427 4.359-79.163 11.465s-118.758-6.09-198.944 63.946-68.007 164.433-79.172 225.345c-11.099 60.55-31.566 66.872-20.959 77.479s15.567-8.792 76.479-19.957 155.31 1.015 225.346-79.172 56.841-149.208 63.946-198.944c7.106-49.735 23.074-69.556 12.467-80.162z" fill="#d36031"/><path d="m406.236 84.327s-53.989 4.061-66.845 6.711c-82.472 16.999-142.643 49.845-182.894 99.579-43.544 53.804-56.8 118.204-68.495 175.024-2.922 14.195-10.555 47.28-10.721 47.909 0 0 33.004-9.282 44.898-11.73 56.82-11.695 121.221-24.951 175.024-68.495 60.749-49.165 96.287-128.071 108.541-241.015.838-4.823.492-7.983.492-7.983zm-9.096 11.963c-12.2 18.282-40.428 58.756-81.494 106.697-49.575 57.873-128.106 138.245-224.723 198.48l306.247-305.371c-.01.064-.021.129-.03.194zm-109.42 64.972c-33.41 28.794-68.404 64.233-104.011 105.334-43.862 50.631-77.948 97.609-93.588 119.935 7.094-24.859 35.629-119.248 71.822-163.957 33.497-41.38 107.209-112.426 229.061-131.501-32.16 15.218-66.828 38.769-103.284 70.189zm100.449-63.253-297.872 297.02c13.139-19.017 49.335-69.924 97.231-125.206 51.312-59.223 126.104-134.772 200.641-171.814zm-283.73 300.787c92.169-59.698 167.07-136.599 215.003-192.556 35.415-41.344 61.349-77.198 75.743-98.154-21.127 116.334-89.617 187.154-129.936 219.794-42.993 34.804-131.954 62.534-160.81 70.916zm253.218-306.124c-104.213 25.676-168.741 88.635-199.601 126.755-26.127 32.275-48.24 89.715-61.424 129.264 21.704-102.472 57.02-220.734 261.025-256.019zm-218.526 300.517c39.55-13.183 96.989-35.295 129.265-61.423 38.12-30.859 101.079-95.388 126.755-199.601-35.286 204.007-153.547 239.322-256.02 261.024z" fill="#ab351b"/><path d="m417.976 76.107c-1.735-2.147-4.887-2.479-7.031-.742-6.677 5.401-21.332 7.702-48.82 11.628-10.087 1.441-21.195 2.011-32.956 2.613-46.419 2.379-104.188 5.339-168.602 62.545-57.481 51.05-62.915 114.433-66.883 160.713-1.174 13.694-2.283 26.629-4.569 37.147-4.763 21.906-12.254 51.59-17.691 63.153-.047.099-.067.202-.106.303-.066.167-.131.332-.179.506-.043.156-.069.312-.097.47-.028.16-.056.319-.068.482-.012.172-.008.34-.003.511.005.152.008.304.026.457.022.186.064.366.107.548.023.1.028.2.059.3.014.045.036.085.051.129.037.112.085.22.13.329.072.175.149.344.239.506.055.1.113.195.175.291.106.165.222.32.345.47.068.082.133.165.206.243.163.174.34.332.524.479.05.04.092.085.144.123.244.181.507.333.778.467.023.011.042.028.065.039.181.085.364.156.549.218.026.01.055.015.082.023.202.063.405.112.609.148.06.012.118.021.178.029.236.034.472.058.707.058h.001c.009 0 .018-.002.026-.002.229-.001.458-.018.684-.05.071-.01.142-.032.214-.046.164-.03.327-.062.487-.108.013-.004.026-.005.039-.009.509-.154 51.737-15.57 129.323-31.622 80.32-16.618 105.459-30.313 140.219-63.03 16.021-15.079 29.472-43.773 39.977-85.286 10.507-41.522 14.61-82.255 15.887-97.84 1.623-19.812 4.429-33.392 7.164-42.525 2.187-5.573 3.434-9.213 3.88-10.557 2.14-4.66 3.704-6.355 3.745-6.397l-.1.096-.016-.017c1.911-1.773 2.166-4.736.501-6.793zm-15.358 14.032c-.69 1.844-1.39 3.9-2.087 6.192-7.672 19.371-27.078 62.917-63.322 112.762-44.207 60.794-122.954 143.188-248.472 193.901 78.107-165.804 138.617-253.109 313.881-312.855zm-298.971 223.579c4.037-47.087 9.061-105.688 63.56-154.09 61.789-54.875 117.615-57.736 162.473-60.034 8.287-.425 16.248-.841 23.858-1.549-64.39 27.115-113.212 60.594-154.104 105.037-39.463 42.89-70.531 95.036-103.426 161.755 1.379-5.881 2.401-10.508 2.878-12.7 2.424-11.148 3.559-24.395 4.761-38.419zm289.187-172.234c-1.256 15.336-5.292 55.409-15.615 96.203-9.888 39.077-22.729 66.898-37.135 80.458-33.758 31.772-56.836 44.266-135.391 60.519-29.055 6.012-54.443 11.938-74.9 17.018 41.095-19.973 79.41-44.472 114.33-73.183 37.931-31.188 71.97-67.364 101.174-107.525 21.497-29.564 37.1-56.708 47.955-78.199-.147 1.533-.286 3.102-.418 4.709z" fill="#962512"/></g><path d="m153.771 135.596c-10.284 8.981-19.046 18.365-26.543 28.024l2.21 18.628 52.676 5.936-7.42 28.192 64.64 26.624 20.723 117.298.654-135.195-55.604-24.896 30.444-36.672-57.009-4.061-7.022-38.196c-5.853 4.343-11.77 9.095-17.749 14.318z" fill="#7a180b"/></g></svg>