<svg id="stroke" height="512" viewBox="0 0 340 340" width="512" xmlns="http://www.w3.org/2000/svg"><path d="m168.842 318.052a11.033 11.033 0 0 0 10.258 6.657q.474 0 .957-.038a11.666 11.666 0 0 0 10.558-8.754 30.091 30.091 0 0 1 14.449-18.817 22.627 22.627 0 0 0 10.3-13.921 110.338 110.338 0 0 0 2.72-15.579 171.083 171.083 0 0 0 1.1-38.369c0-.053-.021-.1-.028-.155a3.9 3.9 0 0 0 -.111-.616 4.04 4.04 0 0 0 -.165-.429c-.04-.1-.07-.2-.118-.3a3.879 3.879 0 0 0 -.324-.512c-.033-.047-.057-.1-.093-.143a4 4 0 0 0 -1.22-1.04 3.9 3.9 0 0 0 -.715-.307c-.035-.011-.071-.014-.106-.024a3.887 3.887 0 0 0 -.648-.138 4.038 4.038 0 0 0 -1.554.128c-.083.023-.158.063-.239.092a3.982 3.982 0 0 0 -.487.194c-.1.053-.194.123-.291.184a3.925 3.925 0 0 0 -.365.237 3.983 3.983 0 0 0 -.492.471c-.023.026-.052.045-.075.072-9.012 10.565-26.887 9.986-33.941 9.286q-.432-4.062-1.061-8.013l.24-.067a3.006 3.006 0 0 1 2.528.424l1.653 1.143a4 4 0 1 0 4.549-6.58l-1.648-1.138a10.978 10.978 0 0 0 -9.236-1.548l-3.707 1.037c-.042.012-.079.034-.12.047s-.072.013-.106.024l-7.4 2.552a4 4 0 0 0 -2.553 2.721c-.75 2.729-2.248 3.4-2.5 3.5-2.425.69-4.418.331-5.923-1.065a6.822 6.822 0 0 1 -2.038-5.963c.664-3.219 2.214-3.651 3.76-3.585a27.384 27.384 0 0 0 8.145-.889 65.381 65.381 0 0 0 8.272-3.021 4 4 0 0 0 2.206-4.81c-.053-.177-.115-.345-.169-.521a62.08 62.08 0 0 0 6.862.386c8.095 0 18.41-1.656 27.23-8.245.777 3.623 1.514 7.507 2.162 11.611a4 4 0 0 0 3.947 3.377 4.087 4.087 0 0 0 .629-.049 4 4 0 0 0 3.327-4.576c-1.1-6.935-2.438-13.263-3.8-18.8l-.012-.052c-2.049-8.306-4.146-14.808-5.532-18.759a91.633 91.633 0 0 1 -2.841-9.563 178.464 178.464 0 0 1 -3.229-61.382c0-.022 0-.042 0-.063a4.121 4.121 0 0 0 .008-.445c0-.126 0-.253-.009-.376 0-.026 0-.051 0-.077-.013-.1-.048-.2-.068-.3a3.92 3.92 0 0 0 -.093-.406 3.686 3.686 0 0 0 -.149-.374c-.049-.113-.093-.228-.152-.336a3.841 3.841 0 0 0 -.232-.358c-.064-.094-.125-.188-.2-.276a3.853 3.853 0 0 0 -.3-.313c-.079-.078-.156-.158-.242-.229a4.185 4.185 0 0 0 -.361-.255c-.091-.059-.178-.121-.274-.173a3.944 3.944 0 0 0 -.435-.194c-.092-.036-.18-.078-.275-.107a3.883 3.883 0 0 0 -.5-.112c-.075-.013-.145-.04-.221-.049-.021 0-.04 0-.06 0a4.1 4.1 0 0 0 -.43-.007c-.137 0-.275 0-.409.011-.021 0-.041 0-.062 0-19.962 2.49-30.975-2.2-35.174-4.64.6-1.9 1.219-3.8 1.887-5.673 0-.006.086-.239.237-.646l2.373 1.152a4 4 0 0 0 3.493-7.2l-6.299-3.045-3.913-1.936a4 4 0 0 0 -3.732.095c-2.424 1.357-3.925.78-4.168.67-2.161-1.223-3.289-2.866-3.351-4.885a6.717 6.717 0 0 1 2.768-5.553c2.706-1.756 4.049-.965 5.1.151a27.123 27.123 0 0 0 6.3 5.129c.8.455 1.668.917 2.59 1.375a4 4 0 0 0 5.427-1.943c.08-.178.161-.348.241-.525a52.7 52.7 0 0 0 26.57 9.049c-.537 2.313-1.058 4.717-1.545 7.234a4 4 0 1 0 7.853 1.521 173.179 173.179 0 0 1 10.094-34.023 48.333 48.333 0 0 0 3.1-10.1 43.743 43.743 0 0 0 .31-15.752 18.629 18.629 0 0 0 -18.4-15.152h-7.832a9.565 9.565 0 0 0 -7.808 3.959 9.992 9.992 0 0 0 -1.416 8.912 11.053 11.053 0 0 1 -.352 7.666 12.612 12.612 0 0 0 -3.36-2.517 11.509 11.509 0 0 0 -10.825.124 11.144 11.144 0 0 0 -5.865 9.413 16.147 16.147 0 0 0 4.755 12.51 21.578 21.578 0 0 0 2.906 2.485c-1.1 2.124-2.189 4.352-3.278 6.638-.022.048-.048.095-.068.143-.179.376-.359.738-.537 1.118a22.306 22.306 0 0 1 -3.03-2.742c-4.129-4.4-9.843-4.917-15.283-1.387a14.8 14.8 0 0 0 -6.411 12.511c.15 4.87 2.787 8.993 7.425 11.611a11.423 11.423 0 0 0 8.569.772l-.176.482q-1.518 4.266-2.794 8.6c-.02.054-.031.11-.049.165-.561 1.9-1.1 3.8-1.588 5.7a27.732 27.732 0 0 1 -2.147-1.811c-4.678-4.337-10.75-4.457-16.243-.325a15.74 15.74 0 0 0 -5.87 13.747c.519 5.143 3.617 9.316 8.727 11.752.893.431 5.39 2.294 11.125-.708l.223.049c-.509 5.147-.791 10.612-.812 15.753l-1.5.028c-4.485-4.951-9.5-4.821-10.488-4.733-6 .447-10.67 3.382-13.159 8.266a16.72 16.72 0 0 0 .515 15.877c3.833 6.187 9.866 8.4 16.139 5.922a23.484 23.484 0 0 1 6.783-1.718c1.2-.094 2.4-.137 3.519-.151.632 3.972 1.427 7.881 2.375 11.7v.021q.431 1.735.9 3.447l-2.236.648a12.386 12.386 0 0 0 -10.619-1.665c-5.349 1.871-8.885 5.689-9.957 10.751a15.749 15.749 0 0 0 4.356 14.314c5.015 4.7 11.071 5.241 16.2 1.432a21.388 21.388 0 0 1 5.551-3.115c1.647-.584 3.332-1.06 4.782-1.425a88.768 88.768 0 0 1 4.215 10.329c-1.169.437-2.509.9-3.875 1.281a19.32 19.32 0 0 1 -5.781.593c-6.085-.168-10.478 3.573-11.8 9.966a14.9 14.9 0 0 0 4.43 13.442c3.594 3.337 8.413 4.364 13.57 2.893a11.781 11.781 0 0 0 7.286-6.975l1.1-.381c.739 4.91 1.243 9.973 1.5 15.133-.446-.009-.88-.023-1.3-.044a19.541 19.541 0 0 1 -5.672-1.275c-5.706-2.073-11.071.059-14.352 5.7a14.9 14.9 0 0 0 -.07 14.154c2.348 4.306 6.591 6.81 11.948 7.055a11.35 11.35 0 0 0 7.33-2.6c-3.043 11.087-7.246 32.575.022 49.271zm21.126-294.085a1.6 1.6 0 0 1 1.347-.676h7.832a10.63 10.63 0 0 1 10.531 8.609 35.863 35.863 0 0 1 -.311 12.854c-.091.5-.209 1-.326 1.508a102.593 102.593 0 0 0 -18.893-10.609 19.046 19.046 0 0 0 -.437-9.922 1.944 1.944 0 0 1 .257-1.764zm-20.3 19.516c.176-2.215 1.175-2.739 1.6-2.962a3.482 3.482 0 0 1 3.48-.083 5.074 5.074 0 0 1 1.82 1.666 12.235 12.235 0 0 0 4.162 3.879 4 4 0 0 0 5.393-1.531l.831-1.459a95.95 95.95 0 0 1 19.392 11.191 169.951 169.951 0 0 0 -6.608 19.478c-13.1-.583-21.487-5.717-25.11-8.507q.961-1.957 1.927-3.819l3.8 1.512a4 4 0 0 0 2.957-7.434l-7.043-2.8a13.109 13.109 0 0 1 -4.11-2.855 8.168 8.168 0 0 1 -2.495-6.276zm-21.779 72.487a4.01 4.01 0 0 0 -3.039.564c-2.564 1.682-4.326 1.241-4.744 1.1l-.059-.022c-2.564-1.22-3.983-3.016-4.217-5.336a7.679 7.679 0 0 1 2.721-6.552c2.4-1.807 4.195-1.866 5.994-.2a29.179 29.179 0 0 0 7.142 5.029c.487.235.978.46 1.467.677a4 4 0 0 0 5.527-2.788c.386-1.734.812-3.47 1.261-5.206 4.905 2.494 13.485 5.476 26.483 5.476 2.19 0 4.523-.1 6.969-.284a192.6 192.6 0 0 0 -.813 19.714c-13.6 6.02-28.177 5.61-37.242 4.434.11-2.164.268-4.324.461-6.443l3.713 1.024a4 4 0 1 0 2.128-7.711l-8.257-2.278c-.036-.01-.071-.009-.107-.018s-.072-.027-.111-.036zm-3.089 39.614a31.283 31.283 0 0 0 -9.1 2.256c-2.626 1.034-4.6.207-6.4-2.7a8.7 8.7 0 0 1 -.188-8.03c1.207-2.368 3.441-3.687 6.641-3.923h.067s0 0 .006 0c.476.008 2.6.217 4.668 3.118a4.021 4.021 0 0 0 3.333 1.676l7.422-.142a4 4 0 0 0 3.922-4.1c-.025-1.023-.034-2.074-.034-3.136a93.284 93.284 0 0 0 11.108.675 75.024 75.024 0 0 0 26.628-4.607 182.124 182.124 0 0 0 3.459 26.572c-12.234 9.551-31.064 8.305-37.822 7.476q-.815-3.59-1.439-7.274h1.343a4 4 0 0 0 0-8h-5.94a71.566 71.566 0 0 0 -7.674.139zm8.041 37.819a29.228 29.228 0 0 0 -7.651 4.235c-1.976 1.468-3.755 1.214-5.953-.847a7.7 7.7 0 0 1 -2-6.821c.485-2.286 2.092-3.921 4.779-4.86.015 0 .035-.009.06-.015.432-.1 2.235-.349 4.608 1.6a4 4 0 0 0 3.656.754l7.96-2.306a4 4 0 0 0 2.707-5.03c-.113-.363-.207-.739-.317-1.1 2.021.172 4.436.3 7.122.3 8.927 0 20.764-1.474 30.516-7.707.578 2.033 1.246 4.149 2.04 6.413 1.21 3.449 2.984 8.922 4.776 15.884-11.751 11.17-29.3 9.091-35.046 8.027q-.894-2.218-1.875-4.329a8.077 8.077 0 0 1 2.218.183l2.287.522a4 4 0 1 0 1.779-7.8l-2.287-.522a16.1 16.1 0 0 0 -8.238.289l-2.525.766a69.2 69.2 0 0 0 -8.62 2.361zm6.022 36.927.052-.016zm48.748 50.911a14.572 14.572 0 0 1 -6.621 8.981 38.323 38.323 0 0 0 -18.117 23.695 3.785 3.785 0 0 1 -3.443 2.779 3.113 3.113 0 0 1 -3.249-1.838c-6.573-15.1-1.922-35.961.822-45.471a36.871 36.871 0 0 0 19.827 5.631 44.852 44.852 0 0 0 12.438-1.823c-.454 2.711-1 5.405-1.661 8.046zm-42.269-20.363c-1.578 2.349-3.211 2.511-3.482 2.521-2.519-.117-4.294-1.09-5.278-2.892a6.826 6.826 0 0 1 -.038-6.3c1.651-2.84 3.237-2.739 4.706-2.2a27.362 27.362 0 0 0 8 1.745 59.24 59.24 0 0 0 6.067-.038 4 4 0 0 0 3.783-4.1c-.046-1.763-.126-3.516-.226-5.261 1.7.138 3.747.245 6.028.245 7.8 0 18.3-1.265 26.757-6.74a159.262 159.262 0 0 1 -1.191 26.494c-5.094 2.054-19.868 6.5-32.83-4.36-.05-.042-.108-.07-.16-.109a3.88 3.88 0 0 0 -3.7-.813l-5.156.044a4 4 0 0 0 -3.284 1.764z"/></svg>