<svg id="icons" height="512" viewBox="0 0 340 340" width="512" xmlns="http://www.w3.org/2000/svg"><path d="m252.914 62.392a14.743 14.743 0 0 1 2.63-14.257 18.888 18.888 0 0 1 5.16-4.441c4.1-2.465 14.777-9.175 22.939-16.922a5.748 5.748 0 0 1 8.068.166 5.761 5.761 0 0 1 .626 7.278c-2.729 4-4.538 8.475-8.119 17.932a23.611 23.611 0 0 1 -1.93 3.984c-2.825 4.613-9.977 13.631-22 11.973z" fill="#e8edff"/><path d="m265.714 53.522a16.9 16.9 0 0 0 -10.914-4.009c-.08 0-.159.011-.24.012a14.608 14.608 0 0 0 -1.641 12.867l7.371 5.713a19.284 19.284 0 0 0 11.384-1.787 16.8 16.8 0 0 0 -5.96-12.796z" fill="#8a8fc2"/><path d="m222.06 98.762s-.1-.244-.249-.682a16.394 16.394 0 0 1 6.068-18.544 143.459 143.459 0 0 0 21.146-18.51 7.878 7.878 0 0 1 10.866-.642 7.9 7.9 0 0 1 1.352 10.539 71.652 71.652 0 0 0 -8.708 17.477s-5.486 18.6-23.435 17.507z" fill="#e8edff"/><path d="m239.953 100.993c-.038-.176-.078-.348-.119-.518a17.725 17.725 0 0 0 -17.318-13.556c-.135 0-.267.008-.4.011a16.222 16.222 0 0 0 -.3 11.15c.147.437.249.682.249.682l7.036 7.145a21.029 21.029 0 0 0 11.214-2.265 17.011 17.011 0 0 0 -.362-2.649z" fill="#8a8fc2"/><path d="m165.819 162.619s-3.454-9.013 6.2-19.717a17.887 17.887 0 0 1 2.387-2.2 247.29 247.29 0 0 0 41.2-41.409 8.81 8.81 0 0 1 15.48 3.292c.027.109.052.219.076.33a8.65 8.65 0 0 1 -1.964 7.458c-5.236 6.082-17.769 21.36-24.31 35.465a17.124 17.124 0 0 0 -1.093 3.266c-1.291 5.452-7.165 23.671-27.875 22.675z" fill="#e8edff"/><path d="m184.907 163.488a20.645 20.645 0 0 0 -17-12.889c-.317-.029-.635-.029-.954-.044-3.063 7.021-1.133 12.064-1.133 12.064l10.1 9.161a27.623 27.623 0 0 0 10.773-1.481 24.554 24.554 0 0 0 -1.786-6.811z" fill="#8a8fc2"/><path d="m109.949 261.261s5.794-10.662 20.337-34.247c15.407-24.985 42.42-44.047 42.42-44.047a13.3 13.3 0 0 0 3.892-16.02 11.7 11.7 0 0 0 -9.522-7.386c-4-.37-9.184 1.185-13.925 8.888 0 0-27.964 39.406-52.35 56s-11.943 31.19-11.943 31.19z" fill="#e8edff"/><path d="m128.727 229.549c-15.82 1.678-17.024-8.677-16.594-14.1a111.082 111.082 0 0 1 -11.332 9c-24.386 16.592-11.943 31.19-11.943 31.19l21.091 5.625s5.381-9.904 18.778-31.715z" fill="#8a8fc2"/><path d="m273.755 109.5s-7.037-9.187 4.692-17.983c7.671-5.753 14.151-9.309 18.772-12.6a5.541 5.541 0 0 1 7.247.712c1.8 1.905 1.711 4.619.526 6.952-2.5 4.92-3.454 7.746-5.744 12.268-4.105 8.107-3.4 16.376-17.869 16.739z" fill="#e8edff"/><path d="m293.144 111.443a15.244 15.244 0 0 0 -4.63-9.567 17.3 17.3 0 0 0 -12.125-4.923 17.332 17.332 0 0 0 -3.223.308 11.535 11.535 0 0 0 .59 12.238l7.624 6.087c6.157-.154 9.562-1.745 11.764-4.143z" fill="#8a8fc2"/><path d="m240.6 151.248s-7.025-14.091 6.914-24.1c8.194-5.886 18.354-14.822 23.421-19.172a8.382 8.382 0 0 1 11.3.357c3.12 3.033 2.079 6.256-.666 9.631a52.118 52.118 0 0 0 -6.743 10.209c-3.448 7.466-7.358 26.028-29.462 27.009z" fill="#e8edff"/><path d="m259 150.179a18.061 18.061 0 0 0 -10.24-13.25c-.108-.049-.219-.1-.331-.148a17.729 17.729 0 0 0 -7.207-1.52c-.243 0-.485.011-.727.02-3.789 8.135.111 15.967.111 15.967l4.766 3.93a29.261 29.261 0 0 0 13.8-3.8c-.047-.4-.103-.8-.172-1.199z" fill="#8a8fc2"/><path d="m180.857 205.741s-4.249-13.909 17.427-26.244c15.928-9.064 29.647-24.363 35.8-31.839a9.138 9.138 0 0 1 10.7-2.645l.22.1a9.221 9.221 0 0 1 2.521 14.92 87.492 87.492 0 0 0 -17.325 24.713c-8.661 18.633-21.257 27.293-41.727 27.556z" fill="#e8edff"/><path d="m184.725 190.934c-5.891 8.169-3.868 14.807-3.868 14.807l7.611 6.561a58.387 58.387 0 0 0 11.611-1.237c0-.1.014-.191.017-.287a19.415 19.415 0 0 0 -5.659-14.822 18.446 18.446 0 0 0 -9.712-5.022z" fill="#8a8fc2"/><path d="m246.7 21.984c-.048.113-.1.226-.149.34l-.008.016a62.348 62.348 0 0 0 -6.166 13.12 23.913 23.913 0 0 1 -4.457 8.44 19.376 19.376 0 0 1 -16.32 7.175l-7.784-7.983s-4.391-12.374 6.387-17.762a209.34 209.34 0 0 0 18.967-11.317 6.488 6.488 0 0 1 9.53 7.971z" fill="#e8edff"/><path d="m226.247 38.582-2.409-2.233a15.01 15.01 0 0 0 -10.238-4.017 14.849 14.849 0 0 0 -1.888.135 17.955 17.955 0 0 0 .1 10.625l7.784 7.983a18.972 18.972 0 0 0 11.4-2.87 14.978 14.978 0 0 0 -4.749-9.623z" fill="#8a8fc2"/><path d="m184.4 80.7s-3.743-8.382 0-15.567c3.2-6.134 17.053-13.593 24.908-21.952a5.984 5.984 0 0 1 8.414-.231l2.408 2.234a5.99 5.99 0 0 1 1.143 7.376c-1.147 1.991-4.941 7.4-5.988 10.977-2.4 8.182-5.788 19.958-20.357 23.75z" fill="#e8edff"/><path d="m205.406 81.926c-1.02-3.146-3.5-7.395-9.561-10.363-.509-.249-1.023-.486-1.529-.7a25 25 0 0 0 -9.916-2.042c-.438 0-.873.022-1.308.045a21.756 21.756 0 0 0 1.308 11.834l10.528 6.587a25.353 25.353 0 0 0 10.478-5.361z" fill="#8a8fc2"/><path d="m126.953 145.458a21.882 21.882 0 0 1 1.056-13.046 23.346 23.346 0 0 1 8.429-10.54c6.4-4.493 22.748-17.1 32.98-35.141 4.266-7.522 13.4-11.013 21.347-7.6q.552.237 1.118.514c7.211 3.535 5.777 9.412 3.223 13.8a24.684 24.684 0 0 1 -6.57 7.263c-5.157 3.871-18.294 14.765-22.632 28.173-5.443 16.824-17.567 23.909-25.484 24.449s-13.467-7.872-13.467-7.872z" fill="#e8edff"/><path d="m150.911 148.311a20.542 20.542 0 0 0 -20.216-15.8 21.136 21.136 0 0 0 -2.791.2 21.88 21.88 0 0 0 -.951 12.749s5.549 8.412 13.467 7.872a23.09 23.09 0 0 0 10.709-3.924c-.066-.369-.129-.735-.218-1.097z" fill="#8a8fc2"/><path d="m86.692 129.449-.771-6.681a13.706 13.706 0 0 1 2.546-9.663 222.008 222.008 0 0 0 13.774-20.944c2.89-5.208 10.693-4.626 12.568 1.027a21.106 21.106 0 0 1 .36 11.39 18.729 18.729 0 0 0 -.395 5.621c.508 6.056-.03 16.923-9.176 22.814 0 0-4.494 3.1-11.313.93s-7.593-4.494-7.593-4.494z" fill="#e8edff"/><path d="m107.533 131.57-1.515-2.963a22.337 22.337 0 0 0 -18.318-12.179l-1-.043a13.719 13.719 0 0 0 -.783 6.383l.771 6.681s.775 2.324 7.593 4.494 11.313-.93 11.313-.93a19.23 19.23 0 0 0 1.939-1.443z" fill="#8a8fc2"/><path d="m93.648 127.715q.327.224.653.475a7.234 7.234 0 0 1 2.2 8.357l-2.32 5.918a32.306 32.306 0 0 0 -2.006 8.009l-.864 7.324a31.475 31.475 0 0 1 -8.82 18.634 17.32 17.32 0 0 1 -6.333 4.311c-7.748 2.634-12.707-6.044-12.707-6.044a27.415 27.415 0 0 1 .93-18.286c2.988-7.126 14.16-20.731 19.733-27.284a7.236 7.236 0 0 1 9.534-1.414z" fill="#e8edff"/><path d="m76.154 180.743a17.32 17.32 0 0 0 6.333-4.311 29.261 29.261 0 0 0 2.767-3.243 16.023 16.023 0 0 0 -.79-1.55 21.069 21.069 0 0 0 -16.5-10.43 16.877 16.877 0 0 0 -1.7-.087 16.6 16.6 0 0 0 -3.429.374 27.273 27.273 0 0 0 .614 13.2s4.957 8.681 12.705 6.047z" fill="#8a8fc2"/><path d="m103.213 262.688 16.513-21.3a134.839 134.839 0 0 1 22.774-15.44s19.858-12.048 31.513-23.348a10.13 10.13 0 0 1 14.107-.234 10.549 10.549 0 0 1 2.979 8.181 10 10 0 0 1 -4.842 8.183c-7.637 4.7-25.2 16.569-37.417 32.936-16.009 21.449-25.457 21.974-25.457 21.974z" fill="#e8edff"/><path d="m102.249 262.164 21.134 11.477s9.448-.525 25.457-21.974q.931-1.248 1.905-2.457c-9.432 2.353-26.442 4.626-31.014-7.815-13.661 11.638-17.482 20.769-17.482 20.769z" fill="#8a8fc2"/><path d="m66.53 232.561a138.136 138.136 0 0 1 9.643-11.461c9.813-10.64 24.3-30.305 34.322-61.355a29.094 29.094 0 0 1 6.685-11.43 24.117 24.117 0 0 1 9.7-6.187 11.781 11.781 0 0 1 15.267 8.222 15.8 15.8 0 0 1 -.176 7.36 11.6 11.6 0 0 1 -4.016 6.265c-3.829 3.1-11.746 10.861-20.779 27.552-8.4 15.526-11.827 33.224-18.178 46.078 0 0-7.439 11.29-13.311 14.385l-15.587 3.646s-13.522-2.619-3.57-23.075z" fill="#e8edff"/><path d="m98.992 237.6c-19.545 1.761-22.422-11.7-22.823-16.507a78.6 78.6 0 0 1 -10.69 9.962c-9.952 20.457 4.622 24.58 4.622 24.58l15.729-3.017c5.87-3.094 9.901-8.418 13.162-15.018z" fill="#8a8fc2"/><path d="m67.041 170.162a12.21 12.21 0 0 1 9.651 6.014 7.748 7.748 0 0 1 .214 7.234l-1.686 3.518a28.561 28.561 0 0 0 -2.81 12.084c-.029 3.018-.1 6.942-.266 11.34 0 0-2.211 26.871-5.023 37.138l-24.732 2.164a85.036 85.036 0 0 0 -3.005-11.868 17.5 17.5 0 0 1 .382-12.5 203.772 203.772 0 0 0 11.159-36.973 26.826 26.826 0 0 1 7.212-13.468 42.652 42.652 0 0 1 3.335-3.025 7.615 7.615 0 0 1 5.569-1.658z" fill="#e8edff"/><path d="m39.284 226.6a17.526 17.526 0 0 0 .1 11.188 85.036 85.036 0 0 1 3.005 11.868l25.364-1.737c2.813-10.268 3.944-25.653 4.391-37.565-3.857 5.846-14.36 18.284-32.86 16.246z" fill="#8a8fc2"/><path d="m274.465 173.233s-4.815-9.347 7.93-16.711c4.964-2.868 8.854-5.362 11.753-7.338a6.375 6.375 0 0 1 9.58 7.453 16.24 16.24 0 0 1 -.653 1.543 6.08 6.08 0 0 1 -.593.965 43.683 43.683 0 0 0 -6.209 12.674c-2.549 8.211-14.728 9.422-14.728 9.422z" fill="#e8edff"/><path d="m293.088 176.584a19.749 19.749 0 0 0 -.923-4.625c-.041-.127-.084-.254-.128-.381a17.511 17.511 0 0 0 -14.349-11.564c-6.67 6.522-3.223 13.219-3.223 13.219l7.08 8.008s7.048-.705 11.543-4.657z" fill="#8a8fc2"/><path d="m245.573 199.218s-2.8-7.314 13.145-19.613c4.907-3.786 8.516-6.645 11.16-8.789a8.677 8.677 0 0 1 13.655 3.71c.029.083.057.166.085.249a10.975 10.975 0 0 1 -2.656 11.085c-3.041 3.1-7.675 8.347-8.576 12.323-1.363 6.02-11.711 13.008-18.7 9.933s-8.113-8.898-8.113-8.898z" fill="#e8edff"/><path d="m250.965 186.666c-7.129 7.983-5.392 12.552-5.392 12.552s1.119 5.823 8.111 8.9c3.967 1.745 9.014.248 12.888-2.472a17.357 17.357 0 0 0 -4.272-13.026 17.925 17.925 0 0 0 -11.335-5.954z" fill="#8a8fc2"/><path d="m196.01 240.925s-1.874-11.9 14.924-18.977c10.765-4.538 23.894-16.171 31.936-23.942a8.721 8.721 0 0 1 14.707 7.385q-.054.422-.121.86a8.964 8.964 0 0 1 -3.1 5.41 37.665 37.665 0 0 0 -9.629 10.422c-8.427 13.833-21.527 27.571-42.327 26.489z" fill="#e8edff"/><path d="m201.977 227.477c-7.059 6.455-5.967 13.447-5.967 13.447l6.387 7.648a40.557 40.557 0 0 0 11.539-1.011 19.66 19.66 0 0 0 -1.166-8.155 21.247 21.247 0 0 0 -10.793-11.929z" fill="#8a8fc2"/><path d="m141.486 257.479c9.036-1.614 28.787-6.345 42.676-18.421.138-.121.268-.241.4-.366a23.154 23.154 0 0 1 2.6-2.066c11.532-7.928 24.552 8.66 13.845 17.672a16.3 16.3 0 0 1 -5.865 3.089 60.906 60.906 0 0 0 -14.091 6.051 88.91 88.91 0 0 0 -20.511 17c-13.584 15.472-31.788 2.136-31.788 2.136s-6.454-6.981 1.143-17.833a14.923 14.923 0 0 1 4.933-4.023c1.942-1.056 5.825-3.073 5.825-3.073q.416-.091.833-.166z" fill="#e8edff"/><path d="m160.542 280.435a83.3 83.3 0 0 1 10.3-9.828 60.614 60.614 0 0 0 -11.9 1.484c-17.808 4.006-18.625-9.218-18.285-14.431a23.239 23.239 0 0 0 -6.235 2.273 16.745 16.745 0 0 0 -5.317 4.248c-7.6 10.853-.352 18.39-.352 18.39s18.205 13.336 31.789-2.136z" fill="#8a8fc2"/><path d="m100.352 258.7 8.559.293c7.939 1.442 19.5 5.512 25.639 16.938a17.513 17.513 0 0 1 0 16.579c-2.719 5.033-7.5 11.072-15.455 13.725-14.849 4.95-35.827-18.149-35.827-18.149l3.771-16.028z" fill="#e8edff"/><path d="m124.657 288.082a39.247 39.247 0 0 0 -15.518-6.165 3.815 3.815 0 0 1 -2.632-5.724l.032-.054a22.316 22.316 0 0 0 2.371-17.139 44.542 44.542 0 0 0 -8.44-.781l-13.435 13.84-.635 2.681s-3.125 13.363-3.1 13.389l.05.054c.021.022 25.352 21.515 35.739 18.053a26.384 26.384 0 0 0 13.026-9.85 23.29 23.29 0 0 0 -7.458-8.304z" fill="#8a8fc2"/><path d="m76.873 250.142a35.909 35.909 0 0 1 13.239.264 14.63 14.63 0 0 1 9.527 21.684 46.583 46.583 0 0 1 -5.406 7.445s-5.349 4-8.149 5.975l-28.093-7.993s6.599-20.771 18.882-27.375z" fill="#e8edff"/><path d="m89.781 276.462a78.745 78.745 0 0 0 -9.231-3.983 5.371 5.371 0 0 1 -3.339-6.2 20.285 20.285 0 0 0 .5-5.369 2.782 2.782 0 0 0 -5.031-1.537l-3.727 5.153q-1.718-1.542-3.449-2.829a75.566 75.566 0 0 0 -7.517 15.822l29.044 8.448a42.315 42.315 0 0 0 7.19-6.436 29.533 29.533 0 0 0 -4.44-3.069z" fill="#8a8fc2"/><path d="m37.773 264.517-.647-10.2a11.59 11.59 0 0 1 6-7.363c5.524-2.766 14.589-5.909 23.667-3.009a12.641 12.641 0 0 1 6.478 19.126c-.745 1.111-1.538 2.231-2.366 3.314l-5.764 5.126c-7.161 5.735-27.368-6.994-27.368-6.994z" fill="#e8edff"/><path d="m54.81 258.7c-1.288-.012-2.5.032-3.623.12a5.42 5.42 0 0 0 -2.246 10.08c5.792 3.435 12.755 6.32 16.5 3.321a34.055 34.055 0 0 0 5.46-5.835 24.146 24.146 0 0 0 -16.091-7.686z" fill="#8a8fc2"/><path d="m88.575 292.336 13.341-3.086a33.108 33.108 0 0 1 18.264 5.462 15.51 15.51 0 0 1 6.565 10.372 15.545 15.545 0 0 1 -3.23 12.321 26.164 26.164 0 0 1 -15.293 9.4c-14.39 2.878-22.664-18.778-22.664-18.778z" fill="#e8edff"/><path d="m88.8 291.187 3.7 13.028a4.688 4.688 0 0 0 8.745.766 21.763 21.763 0 0 0 1.73-9.45c-.067-2.116-.125-4.4-1.051-6.276a40.733 40.733 0 0 0 -13.124 1.932z" fill="#8a8fc2"/><path d="m65.142 278.18 12.741 1.732a47.752 47.752 0 0 1 8 3.537c10.643 5.936 14.411 19.715 7.815 29.962-2.984 4.637-8.021 8.714-16.415 10.513 0 0-16.529 4.676-24.633-9.713s12.492-36.031 12.492-36.031z" fill="#e8edff"/><path d="m76.434 291.342a22.388 22.388 0 0 0 1.449-11.429 43.228 43.228 0 0 0 -12.47-2.4l-6.554 13.6a6.038 6.038 0 0 0 6.479 8.578c4.371-.791 8.925-2.991 11.096-8.349z" fill="#8a8fc2"/><path d="m43.967 261.323c5.781.682 14.293 3.247 22.136 11.58a14.463 14.463 0 0 1 2.936 15.386c-2.32 5.62-7.135 11.726-17.092 11.3a6.279 6.279 0 0 1 -2.908-.87 11.855 11.855 0 0 1 -5.707-8.416l-.6-3.889a11.725 11.725 0 0 0 -3.747-6.848 13.919 13.919 0 0 1 -4.818-8.969 8.745 8.745 0 0 1 9.8-9.274z" fill="#e8edff"/><path d="m36.289 282.517a7.774 7.774 0 0 1 2.491 4.5l.6 3.89a15.8 15.8 0 0 0 7.633 11.256c.057.033.118.056.175.089a20.413 20.413 0 0 0 1.98 13.919c5.532 9.829 14.845 12.511 22.125 12.511a26.74 26.74 0 0 0 6.951-.874 32.424 32.424 0 0 0 11.694-4.908c5.56 6.358 11.124 8.168 15.642 8.168a17.392 17.392 0 0 0 3.426-.344 30.162 30.162 0 0 0 17.612-10.8 19.549 19.549 0 0 0 4.074-15.489c-.022-.137-.062-.268-.087-.4a35.485 35.485 0 0 0 7.461-9.623 21.642 21.642 0 0 0 1.35-3.069 27.739 27.739 0 0 0 5.386.565c7.162 0 13.623-3 18.746-8.834a85.558 85.558 0 0 1 19.581-16.217 56.82 56.82 0 0 1 13.172-5.641 20.341 20.341 0 0 0 7.284-3.858 15.353 15.353 0 0 0 3.881-4.83c16.115-.979 29.794-10.5 40.676-28.364a31.488 31.488 0 0 1 7.811-8.643c.39-.313.73-.587 1.008-.827a13.8 13.8 0 0 0 1.343-1.339c7.893-.408 16.746-6.915 18.327-13.9.511-2.258 3.367-6.209 7.64-10.571a15.372 15.372 0 0 0 3.226-4.879c6.576-2.071 11.021-5.926 12.6-11a39.651 39.651 0 0 1 5.6-11.481 10.193 10.193 0 0 0 .979-1.6 20.767 20.767 0 0 0 .814-1.924 10.375 10.375 0 0 0 -15.6-12.119c-3.412 2.325-7.281 4.74-11.5 7.178-7.319 4.229-9.9 9.232-10.6 13.3a12.753 12.753 0 0 0 -2.128 1.376c-3.023 2.452-6.8 5.428-11.228 8.846-7.552 5.83-12.318 11.5-14.19 16.865a13.129 13.129 0 0 0 -2.162 1.684c-12.061 11.654-22.967 19.869-30.71 23.132-8.347 3.519-12.681 8.236-14.937 12.328a14.816 14.816 0 0 0 -9.545 2.741 27.173 27.173 0 0 0 -3.065 2.438c-.1.092-.194.181-.3.27-7.8 6.78-17.721 11.132-26.185 13.859 11.639-13.828 26.675-23.864 33-27.762a13.933 13.933 0 0 0 6.76-11.486 14.637 14.637 0 0 0 -4.17-11.133 13.314 13.314 0 0 0 -4.872-3.043c1.877-3.959 5.89-8.767 14.207-13.5 16.252-9.247 30.1-24.5 36.912-32.773a5.146 5.146 0 0 1 6-1.526l.164.074a4.993 4.993 0 0 1 2.858 3.717 5.285 5.285 0 0 1 -1.493 4.731 91.133 91.133 0 0 0 -18.141 25.864c-5.533 11.905-12.543 19.081-22.062 22.583a4 4 0 1 0 2.762 7.508c11.633-4.279 20.071-12.769 26.555-26.72a83.035 83.035 0 0 1 16.53-23.565 13.331 13.331 0 0 0 3.084-4.847c15.488-4.018 20.578-16.982 23.663-24.854.51-1.3.95-2.424 1.363-3.319a47.638 47.638 0 0 1 6.215-9.362c.348-.427.656-.844.945-1.256 10.525-1.575 13.022-8.089 15.219-13.878a48.5 48.5 0 0 1 1.975-4.7c1.16-2.288 2-4.181 2.811-6.01.833-1.877 1.693-3.816 2.931-6.252 2.088-4.11 1.635-8.52-1.182-11.509a9.581 9.581 0 0 0 -12.474-1.222c-1.711 1.219-3.709 2.487-6.021 3.956-3.759 2.388-8.02 5.093-12.831 8.7-8.139 6.1-8.854 12.748-8.167 17.012l-1.642 1.415c-5.241 4.523-14.013 12.1-21.055 17.153-7.907 5.68-10.106 12.553-10.326 18.028a13.29 13.29 0 0 0 -3.858 3.193c-6.459 7.846-19.556 22.293-34.692 30.905-11.98 6.818-16.837 14.312-18.7 20.12a14.443 14.443 0 0 0 -6.376 3.588c-10.846 10.518-29.431 21.959-30.735 22.757q-1.994 1.093-3.918 2.218c15.066-21.816 38.193-38.3 38.473-38.493a17.4 17.4 0 0 0 6.5-10.63c19.1-2.218 24.812-19.934 26.143-25.554a13.152 13.152 0 0 1 .829-2.5c6.348-13.689 18.7-28.714 23.712-34.538a12.909 12.909 0 0 0 2.041-3.288c16.149-2.2 21.569-18.435 22.071-20.059a67.924 67.924 0 0 1 8.181-16.441c.224-.322.429-.652.617-.987 11.338-.961 18.079-9.956 20.553-14a27.711 27.711 0 0 0 2.26-4.655c3.53-9.323 5.213-13.479 7.682-17.093a9.755 9.755 0 0 0 -14.751-12.6c-7.852 7.453-18.173 13.948-22.244 16.393a22.891 22.891 0 0 0 -6.244 5.394 19.27 19.27 0 0 0 -4.252 10.9 11.958 11.958 0 0 0 -2.056 1.749 140 140 0 0 1 -20.538 17.978 20.5 20.5 0 0 0 -8.577 16.9 12.793 12.793 0 0 0 -4.522 3.645 241.9 241.9 0 0 1 -40.492 40.7 21.848 21.848 0 0 0 -2.922 2.692c-5.419 6.012-7.271 11.68-7.71 16.006-3.706 1.178-7.8 4.013-11.514 10-1.217 1.7-17.6 24.412-35.6 41.805a115.412 115.412 0 0 1 6.473-14.609c8.668-16.016 16.111-23.381 19.777-26.346a15.7 15.7 0 0 0 5.389-8.435 19.844 19.844 0 0 0 .183-9.2 15.162 15.162 0 0 0 -7.465-9.879 16.108 16.108 0 0 0 -7.858-2.045 18.743 18.743 0 0 1 8.018-12.373c6.739-4.726 23.557-17.74 34.163-36.441a12.981 12.981 0 0 1 16.288-5.9c.307.132.618.275.937.432 1.639.8 2.626 1.727 2.934 2.745.39 1.286-.111 3.222-1.408 5.452a20.583 20.583 0 0 1 -5.514 6.075c-5.673 4.258-19.371 15.719-24.036 30.141a36.129 36.129 0 0 1 -9.8 15.817 4 4 0 0 0 5.36 5.94 44.114 44.114 0 0 0 12.049-19.294c4.072-12.588 17.277-23.24 21.228-26.206a28.544 28.544 0 0 0 7.626-8.449 19.377 19.377 0 0 0 2.379-6.039c12.539-5.52 15.9-16.972 18.149-24.661l.029-.1c.644-2.2 2.969-5.874 4.358-8.069.444-.7.822-1.3 1.1-1.777a23.529 23.529 0 0 0 14.388-8.326 27.866 27.866 0 0 0 5.226-9.839 58.528 58.528 0 0 1 5.716-12.141 4.228 4.228 0 0 0 .3-.554l.166-.379a10.27 10.27 0 0 0 -2.883-12.158 10.433 10.433 0 0 0 -12.516-.742 206.392 206.392 0 0 1 -18.557 11.082c-6.842 3.42-10.222 10.058-9.344 18.032-.235.206-.465.423-.683.656-3.277 3.486-7.779 6.886-12.133 10.174-6.022 4.548-11.223 8.476-13.408 12.67a20.229 20.229 0 0 0 -2.009 11.319 21.506 21.506 0 0 0 -12.9 10.159c-9.8 17.288-25.5 29.424-31.8 33.84a26.8 26.8 0 0 0 -11.684 21.011 28.62 28.62 0 0 0 -8.144 5.916 32.853 32.853 0 0 0 -7.625 12.99c-8.891 27.554-21.273 45.859-30.759 56.854.317-6.263.44-12.013.481-16.318a24.407 24.407 0 0 1 2.417-10.393l1.686-3.519a12.141 12.141 0 0 0 .9-2.624 27.366 27.366 0 0 0 4.444-3.807 35.665 35.665 0 0 0 9.421-20.42l.866-7.345a28.292 28.292 0 0 1 1.757-7.018l3.828-9.761a4 4 0 0 0 -.163-3.281 17.315 17.315 0 0 0 -11.707-9.09 9.678 9.678 0 0 1 1.838-6.327 222.838 222.838 0 0 0 14.042-21.367 2.937 2.937 0 0 1 2.9-1.509 2.678 2.678 0 0 1 2.376 1.854 17.294 17.294 0 0 1 .252 9.265 22.7 22.7 0 0 0 -.476 6.821c.3 3.6.263 10.393-3.393 15.4a4 4 0 1 0 6.46 4.719c4.929-6.748 5.388-15.027 4.9-20.785a14.732 14.732 0 0 1 .315-4.421 25.146 25.146 0 0 0 -.468-13.515 10.622 10.622 0 0 0 -9.226-7.3 10.858 10.858 0 0 0 -10.636 5.591 220.171 220.171 0 0 1 -13.506 20.526 17.67 17.67 0 0 0 -3.29 12.48l.231 2c-5.165 6.012-18.054 21.445-21.49 29.638a31.208 31.208 0 0 0 -2.3 14.325c-1.043.877-2.081 1.815-3.089 2.827a30.739 30.739 0 0 0 -8.293 15.475 199.049 199.049 0 0 1 -10.93 36.238 21.474 21.474 0 0 0 -.475 15.362 71.5 71.5 0 0 1 1.958 6.952 15.606 15.606 0 0 0 -4.82 11.76 33.995 33.995 0 0 0 .379 4.014 12.505 12.505 0 0 0 -2.939 9.094 17.664 17.664 0 0 0 6.11 11.606zm244.558-187.8c4.562-3.421 8.683-6.039 12.319-8.348 2.309-1.466 4.49-2.851 6.374-4.193a1.545 1.545 0 0 1 2.015.2c.673.715.01 2.123-.129 2.4-1.333 2.622-2.237 4.66-3.111 6.631-.807 1.818-1.569 3.535-2.636 5.642a55.285 55.285 0 0 0 -2.318 5.472c-1.5 3.956-2.477 6.493-5.443 7.862a10.154 10.154 0 0 0 -2.89-4.912 12.338 12.338 0 0 0 -9.3-3.509c.33-2.514 2.04-4.937 5.119-7.247zm-31 35.678c7.332-5.267 16.273-12.984 21.614-17.595l2.079-1.791a4.359 4.359 0 0 1 5.908.191c.739.719 1.377 1.339-.981 4.238a54.572 54.572 0 0 0 -7.272 11.057c-.512 1.108-1.015 2.392-1.548 3.752-2.635 6.723-6.159 15.647-15.943 19.293a13.086 13.086 0 0 0 -7.08-8.085l-.223-.1a12.739 12.739 0 0 0 -3.357-.95c.674-3.882 2.946-7.24 6.807-10.012zm-29.847-101.488a213.98 213.98 0 0 0 19.371-11.55 2.38 2.38 0 0 1 2.979.181 2.352 2.352 0 0 1 .681 2.865l-.024.055a65.9 65.9 0 0 0 -6.444 13.814 19.957 19.957 0 0 1 -3.689 7.04 15.95 15.95 0 0 1 -7.336 5.058 10.052 10.052 0 0 0 -2.686-4.122l-2.408-2.234a10 10 0 0 0 -5.521-2.58 8.8 8.8 0 0 1 5.077-8.527zm-32.056 38.072c1.351-2.593 6.325-6.348 11.135-9.98 4.62-3.491 9.4-7.1 13.141-11.08a1.976 1.976 0 0 1 2.78-.037l2.408 2.232a1.979 1.979 0 0 1 .4 2.447c-.248.432-.632 1.035-1.085 1.75-1.821 2.879-4.315 6.821-5.275 10.1l-.029.1c-1.889 6.456-4.2 14.3-11.837 18.642a13.852 13.852 0 0 0 -5.929-5.1q-.66-.323-1.305-.6a20.134 20.134 0 0 0 -5.523-1.488 12.414 12.414 0 0 1 1.119-6.986zm-143.025 183.551c5.214-2.61 13.031-5.212 20.658-2.774a8.359 8.359 0 0 1 5.384 5.267 8.754 8.754 0 0 1 -1.012 7.82 50.24 50.24 0 0 1 -4.533 5.891 39.2 39.2 0 0 0 -20.98-9.384 12.851 12.851 0 0 0 -3.694.115 7.589 7.589 0 0 1 4.177-6.935zm1.769 35.27a15.808 15.808 0 0 0 -5-9.191 10.07 10.07 0 0 1 -3.529-6.334 4.523 4.523 0 0 1 1.407-3.657 4.817 4.817 0 0 1 3.934-1.318c5.108.6 12.67 2.887 19.692 10.348a10.461 10.461 0 0 1 2.151 11.119c-2.564 6.213-6.895 9.109-13.219 8.828a2.27 2.27 0 0 1 -1.055-.322 7.82 7.82 0 0 1 -3.781-5.576zm73.723 29.079a21.976 21.976 0 0 1 -12.973 8c-3.981.792-7.905-1.055-11.686-5.484.454-.59.9-1.186 1.311-1.82a24.558 24.558 0 0 0 3.148-19.444 25.451 25.451 0 0 0 -.889-2.821 30.075 30.075 0 0 1 18.619 4.715 11.678 11.678 0 0 1 2.47 16.856zm10.615-24.273a29.106 29.106 0 0 1 -3.805 5.5 19.12 19.12 0 0 0 -4.8-4.713c-9.87-6.663-20.745-6.649-27.577-5.68a25.576 25.576 0 0 0 -7.008-5.76c-.933-.52-1.89-1.015-2.846-1.472a4 4 0 0 0 -3.45 7.219c.8.384 1.61.8 2.4 1.239a17.7 17.7 0 0 1 8.514 11.13 16.632 16.632 0 0 1 -2.114 13.174c-2.869 4.457-7.542 7.406-13.89 8.766-.072.016-.162.038-.234.058-.554.149-13.656 3.578-20.076-7.822-1.327-2.356-1.659-5.3-1.03-8.75 8.053-.728 14.247-5.487 17.63-13.682a18.4 18.4 0 0 0 -1.819-17.257 56.053 56.053 0 0 0 5.677-7.26 16.687 16.687 0 0 0 2.729-11.463 32.453 32.453 0 0 1 9.942.479 10.631 10.631 0 0 1 6.925 15.75c-.478.813-.982 1.613-1.5 2.377a4 4 0 0 0 6.627 4.482c.611-.9 1.207-1.849 1.771-2.809a18.408 18.408 0 0 0 2.443-11.6c6.933.846 19.4 3.962 25.494 15.306a13.435 13.435 0 0 1 -.003 12.791zm153.374-130.62c4.392-2.538 8.431-5.06 12-7.5a2.375 2.375 0 0 1 3.567 2.784 12.5 12.5 0 0 1 -.491 1.159 2.168 2.168 0 0 1 -.206.327 47.429 47.429 0 0 0 -6.818 13.873 8.033 8.033 0 0 1 -4.16 4.423 14.946 14.946 0 0 0 -.389-1.447l-.107-.317a12.4 12.4 0 0 0 -8.44-7.938c-.235-.067-.475-.1-.712-.157a15.8 15.8 0 0 1 5.756-5.207zm-23.065 22.927c4.478-3.456 8.306-6.473 11.378-8.965a4.922 4.922 0 0 1 4.454-.9 4.5 4.5 0 0 1 3.078 2.871l.063.186a7.085 7.085 0 0 1 -1.747 7.181c-5.582 5.7-8.855 10.542-9.729 14.4-.494 2.183-3.638 5.28-7.188 6.8a12.552 12.552 0 0 0 -7.012-11.578 13.01 13.01 0 0 0 -2.541-.954 45.722 45.722 0 0 1 9.24-9.041zm-48.844 42.72c11.062-4.661 24.14-16.032 33.162-24.751a4.721 4.721 0 0 1 7.959 4.007c-.031.249-.067.5-.106.76a4.994 4.994 0 0 1 -1.754 2.978c-.221.19-.492.406-.8.655a39.279 39.279 0 0 0 -9.642 10.718c-9.119 14.972-19.781 22.968-32.481 24.38a15.894 15.894 0 0 0 -3.112-7.555 16.47 16.47 0 0 0 -3.61-3.458c2.093-3.084 5.61-5.723 10.38-7.734zm-25.7 16.443c.175-.152.34-.3.506-.458a18.916 18.916 0 0 1 2.138-1.695c4.451-3.056 8.331-.339 9.923 1.751 1.882 2.47 2.77 6.458-.919 9.563a12.413 12.413 0 0 1 -4.447 2.321 64.612 64.612 0 0 0 -15.01 6.461 93.615 93.615 0 0 0 -21.44 17.777c-4.567 5.2-10.249 7.093-16.914 5.648a21.506 21.506 0 0 0 -2.55-9.405 33.78 33.78 0 0 0 -5.634-7.666 18.265 18.265 0 0 1 9.751-4.956c1.047-.187 2.208-.416 3.425-.669l.04-.009c10.987-2.294 28.246-7.463 41.126-18.663zm71.9-191.465a14.9 14.9 0 0 1 4.08-3.488c4.3-2.582 15.206-9.452 23.632-17.449a1.755 1.755 0 0 1 2.637 2.287c-2.957 4.329-4.786 8.814-8.556 18.771a19.8 19.8 0 0 1 -1.6 3.311c-2.032 3.318-6.13 8.481-12.459 9.884a11.886 11.886 0 0 0 -9.859-9.28 11.989 11.989 0 0 1 2.119-4.036zm-28.491 32.182a148.313 148.313 0 0 0 21.752-19.044 3.88 3.88 0 0 1 6 4.893 76.017 76.017 0 0 0 -9.2 18.455c-.016.047-.036.11-.051.159-.158.522-3.649 11.625-13.789 14.173a12.625 12.625 0 0 0 -9.622-9.212c-.1-.021-.2-.034-.3-.053a12.487 12.487 0 0 1 5.21-9.371zm-55.217 62.786a13.719 13.719 0 0 1 1.853-1.7 250.44 250.44 0 0 0 41.915-42.114 4.747 4.747 0 0 1 4.839-1.726 4.623 4.623 0 0 1 3.6 3.472l.06.264a4.655 4.655 0 0 1 -1.088 3.993c-5.233 6.078-18.136 21.791-24.907 36.393a21.018 21.018 0 0 0 -1.356 4.025c-1.28 5.409-5.614 17.554-18.846 19.4a20.838 20.838 0 0 0 -.765-2.17 15.86 15.86 0 0 0 -10.836-9.5c.513-2.827 1.98-6.395 5.534-10.337zm-60.683 15.392a24.944 24.944 0 0 1 5.746-9.869 20.073 20.073 0 0 1 8.089-5.179 8.133 8.133 0 0 1 6.525.618 7.255 7.255 0 0 1 3.587 4.714 11.949 11.949 0 0 1 -.168 5.513 7.635 7.635 0 0 1 -2.644 4.095c-4.129 3.341-12.45 11.518-21.781 28.759-4.836 8.935-7.985 18.291-11.032 27.338-2.488 7.389-4.838 14.369-7.823 20.068a4 4 0 1 0 7.087 3.711 123.8 123.8 0 0 0 6.989-17.305c23.045-18.331 46.536-51.258 47.538-52.671.05-.071.1-.143.144-.217 3.069-4.987 6.481-7.338 10.15-7a7.688 7.688 0 0 1 6.2 4.94c2.868 6.888-2.009 10.837-2.506 11.214-1.13.8-27.862 19.826-43.518 45.216q-3.568 5.787-6.45 10.551c-.061.1-.1.208-.148.311-2.569 2.038-5 4.12-7.261 6.254a4 4 0 1 0 5.5 5.812 125.029 125.029 0 0 1 25.9-18.386c.052-.029.1-.059.153-.089.827-.5 20.384-12.413 32.226-23.9a6.138 6.138 0 0 1 8.516-.256 6.7 6.7 0 0 1 1.787 5.229 6.046 6.046 0 0 1 -2.941 4.88c-7.337 4.519-25.78 16.873-38.525 33.949-1.027 1.376-2.049 2.678-3.059 3.93-.649.128-1.251.241-1.792.338a26.169 26.169 0 0 0 -14.576 7.764c-9.132-5.849-19.425-6.9-23.776-7.069a18.4 18.4 0 0 0 -11.477-7.734 40.263 40.263 0 0 0 -14.653-.318 16.168 16.168 0 0 0 -3.278-3.425c.867-4.562 1.515-9.622 2-14.735 10.11-9.877 27.635-30.985 39.271-67.051zm-25.483-31.2a9.4 9.4 0 0 1 4.736 3.32l-3.1 7.91a36.36 36.36 0 0 0 -2.255 9l-.865 7.343a27.608 27.608 0 0 1 -7.256 15.826c-.119.125-.235.231-.353.35a16.2 16.2 0 0 0 -12.275-7.343q-.561-.057-1.123-.058a22.751 22.751 0 0 1 1.74-8.164c2.834-6.745 14.801-21.301 20.752-28.18zm-45.363 97.059a207.188 207.188 0 0 0 11.387-37.706 22.759 22.759 0 0 1 6.131-11.462 38.91 38.91 0 0 1 3.022-2.742 3.632 3.632 0 0 1 2.637-.779 8.166 8.166 0 0 1 6.606 4.052 3.772 3.772 0 0 1 .061 3.488l-1.686 3.519a32.356 32.356 0 0 0 -3.2 13.774c-.092 9.772-.614 27.138-2.923 40.5-7.656-1.683-15.011.019-20.723 2.356-.447-1.715-.978-3.548-1.6-5.347a13.49 13.49 0 0 1 .288-9.653z" fill="#3c3c4f"/></svg>