<svg id="Layer_1" enable-background="new 0 0 500 500" viewBox="0 0 500 500" xmlns="http://www.w3.org/2000/svg"><path d="m248.2 87.8c1.7-3.9 6.3-5.6 10.1-3.8 3.9 1.7 5.6 6.3 3.8 10.1l-10.6 23.3c-1.7 3.9-6.3 5.6-10.1 3.8-3.9-1.7-5.6-6.3-3.9-10.1zm-63.2-5.3c-.4-4.2 2.7-7.9 6.9-8.3s7.9 2.7 8.3 6.9l2.5 25.5c.4 4.2-2.7 7.9-6.9 8.3s-7.9-2.7-8.3-6.9zm-57.4 27.1c-2.4-3.4-1.7-8.2 1.8-10.6 3.4-2.4 8.2-1.7 10.6 1.8l14.9 20.8c2.4 3.4 1.6 8.2-1.8 10.6s-8.2 1.7-10.6-1.8zm213.3 154.9v200.7c0 4.2-3.4 7.7-7.6 7.7h-43.1c-4.2 0-7.6-3.4-7.6-7.7v-200.7c0-4.2 3.4-7.6 7.6-7.6h43.1c4.2-.1 7.6 3.4 7.6 7.6zm-15.3 193v-185.4h-27.8v185.4zm57.6-201.2v201.3h27.8v-253.3zm-15.3 208.9v-210.8c0-1.2.3-2.4.9-3.6l42.7-79.9c3.8-8 14.7-4.9 14.7 3v291.3c0 4.2-3.4 7.7-7.7 7.7h-43.1c-4.1 0-7.5-3.5-7.5-7.7zm-197.7-136.4v136.4c0 4.2-3.4 7.7-7.7 7.7h-43.1c-4.2 0-7.6-3.4-7.6-7.7v-59.8c0-1.5.4-2.9 1.2-4.1l42.9-76.2c3.8-6.9 14.3-4.1 14.3 3.7zm-15.3 128.7v-99.5l-27.7 49.4v50.2h27.7zm100.7-193v200.7c0 4.2-3.4 7.7-7.6 7.7h-43.1c-4.2 0-7.7-3.4-7.7-7.7v-200.7c0-4.2 3.4-7.6 7.7-7.6h43.1c4.1-.1 7.6 3.4 7.6 7.6zm-15.3 193v-185.4h-27.8v185.4zm199-422.7v109.1c0 5.6-6.2 10-12.1 6.2l-18.3-10.5-53.3 99.7c-1.4 2.6-4 4-6.7 4h-167.2l-63.7 114.6c-2.1 3.8-6.9 5.1-10.8 2.7l-42.6-24.6c-3.6-2.1-4.9-6.7-2.8-10.3l79.8-143.2c1.4-2.5 4-3.9 6.7-3.9h166.8l38-71.4-19.6-11.3c-5.1-3-5.1-10.3.1-13.3l94.4-54.5c4.9-2.9 11.2.9 11.3 6.7zm-15.4 95.8v-82.6l-71.6 41.3 14.4 8.3c3.7 2 5 6.6 3.1 10.3l-43.3 81.3c-1.2 2.8-3.9 4.7-7 4.7h-166.9l-73.9 132.7 29.7 17.2 61.8-111.3c1.2-2.7 3.9-4.5 7-4.5h167.1l54.8-102.5c2.1-3.9 6.8-5.2 10.5-3z"/></svg>