<?xml version="1.0" encoding="iso-8859-1"?>
<!-- Generator: Adobe Illustrator 19.0.0, SVG Export Plug-In . SVG Version: 6.00 Build 0)  -->
<svg version="1.1" id="Capa_1" xmlns="http://www.w3.org/2000/svg" xmlns:xlink="http://www.w3.org/1999/xlink" x="0px" y="0px"
	 viewBox="0 0 512 512" style="enable-background:new 0 0 512 512;" xml:space="preserve">
<g>
	<g>
		<path d="M452,311.145V75c0-24.813-20.187-45-45-45h-15V15c0-8.284-6.716-15-15-15s-15,6.716-15,15v15h-60V15
			c0-8.284-6.716-15-15-15s-15,6.716-15,15v15h-92V15c0-8.284-6.716-15-15-15s-15,6.716-15,15v15H90V15c0-8.284-6.716-15-15-15
			S60,6.716,60,15v15H45C20.187,30,0,50.187,0,75v331c0,24.813,20.187,45,45,45h266.946c16.795,36.01,53.085,61,95.054,61
			c57.897,0,105-47.551,105-106C512,364.198,487.443,328.027,452,311.145z M30,75c0-8.271,6.729-15,15-15h15v15
			c0,8.284,6.716,15,15,15s15-6.716,15-15V60h60v15c0,8.284,6.716,15,15,15s15-6.716,15-15V60h92v15c0,8.284,6.716,15,15,15
			s15-6.716,15-15V60h60v15c0,8.284,6.716,15,15,15s15-6.716,15-15V60h15c8.271,0,15,6.729,15,15v46H30V75z M303.056,421H45
			c-8.271,0-15-6.729-15-15V151h392v151.076c-4.901-0.704-9.907-1.076-15-1.076c-57.897,0-105,47.103-105,105
			C302,411.092,302.365,416.098,303.056,421z M407,482c-41.355,0-75-34.093-75-76c0-41.355,33.645-75,75-75
			c41.355,0,75,33.645,75,75C482,447.907,448.355,482,407,482z"/>
	</g>
</g>
<g>
	<g>
		<path d="M437,391h-15v-15c0-8.284-6.716-15-15-15s-15,6.716-15,15v30c0,8.284,6.716,15,15,15h30c8.284,0,15-6.716,15-15
			S445.284,391,437,391z"/>
	</g>
</g>
<g>
	<g>
		<path d="M105,181H75c-8.284,0-15,6.716-15,15s6.716,15,15,15h30c8.284,0,15-6.716,15-15S113.284,181,105,181z"/>
	</g>
</g>
<g>
	<g>
		<path d="M196,181h-31c-8.284,0-15,6.716-15,15s6.716,15,15,15h31c8.284,0,15-6.716,15-15S204.284,181,196,181z"/>
	</g>
</g>
<g>
	<g>
		<path d="M287,181h-31c-8.284,0-15,6.716-15,15s6.716,15,15,15h31c8.284,0,15-6.716,15-15S295.284,181,287,181z"/>
	</g>
</g>
<g>
	<g>
		<path d="M377,181h-30c-8.284,0-15,6.716-15,15s6.716,15,15,15h30c8.284,0,15-6.716,15-15S385.284,181,377,181z"/>
	</g>
</g>
<g>
	<g>
		<path d="M105,241H75c-8.284,0-15,6.716-15,15s6.716,15,15,15h30c8.284,0,15-6.716,15-15S113.284,241,105,241z"/>
	</g>
</g>
<g>
	<g>
		<path d="M196,241h-31c-8.284,0-15,6.716-15,15s6.716,15,15,15h31c8.284,0,15-6.716,15-15S204.284,241,196,241z"/>
	</g>
</g>
<g>
	<g>
		<path d="M287,241h-31c-8.284,0-15,6.716-15,15s6.716,15,15,15h31c8.284,0,15-6.716,15-15S295.284,241,287,241z"/>
	</g>
</g>
<g>
	<g>
		<path d="M377,241h-30c-8.284,0-15,6.716-15,15s6.716,15,15,15h30c8.284,0,15-6.716,15-15S385.284,241,377,241z"/>
	</g>
</g>
<g>
	<g>
		<path d="M105,301H75c-8.284,0-15,6.716-15,15s6.716,15,15,15h30c8.284,0,15-6.716,15-15S113.284,301,105,301z"/>
	</g>
</g>
<g>
	<g>
		<path d="M196,301h-31c-8.284,0-15,6.716-15,15s6.716,15,15,15h31c8.284,0,15-6.716,15-15S204.284,301,196,301z"/>
	</g>
</g>
<g>
	<g>
		<path d="M287,301h-31c-8.284,0-15,6.716-15,15s6.716,15,15,15h31c8.284,0,15-6.716,15-15S295.284,301,287,301z"/>
	</g>
</g>
<g>
	<g>
		<path d="M105,361H75c-8.284,0-15,6.716-15,15s6.716,15,15,15h30c8.284,0,15-6.716,15-15S113.284,361,105,361z"/>
	</g>
</g>
<g>
	<g>
		<path d="M196,361h-31c-8.284,0-15,6.716-15,15s6.716,15,15,15h31c8.284,0,15-6.716,15-15S204.284,361,196,361z"/>
	</g>
</g>
<g>
	<g>
		<path d="M287,361h-31c-8.284,0-15,6.716-15,15s6.716,15,15,15h31c8.284,0,15-6.716,15-15S295.284,361,287,361z"/>
	</g>
</g>
<g>
</g>
<g>
</g>
<g>
</g>
<g>
</g>
<g>
</g>
<g>
</g>
<g>
</g>
<g>
</g>
<g>
</g>
<g>
</g>
<g>
</g>
<g>
</g>
<g>
</g>
<g>
</g>
<g>
</g>
</svg>
