<svg enable-background="new 0 0 32 32" viewBox="0 0 32 32" xmlns="http://www.w3.org/2000/svg"><g id="Layer_1" display="none"/><g id="Layer_2"/><g id="Layer_3"/><g id="Layer_4"/><g id="Layer_5"/><g id="Layer_6"/><g id="Layer_7"/><g id="Layer_8"/><g id="Layer_9"/><g id="Layer_10"/><g id="Layer_11"/><g id="Layer_12"/><g id="Layer_13"/><g id="Layer_14"/><g id="Layer_15"/><g id="Layer_16"/><g id="Layer_17"/><g id="Layer_18"/><g id="Layer_19"/><g id="Layer_20"/><g id="Layer_21"/><g id="Layer_22"/><g id="Layer_23"/><g id="Layer_24"><path d="m28.702 8.564-4.273-5c-.795-.93-1.954-1.464-3.18-1.464h-14.771c-2.306 0-4.182 1.877-4.182 4.183v19.436c0 2.306 1.876 4.183 4.182 4.183h19.045c2.306 0 4.183-1.877 4.183-4.183v-14.437c-.001-.995-.357-1.96-1.004-2.718zm-6.962 19.536h-11.481v-8.173c0-.631.514-1.144 1.145-1.144h9.191c.631 0 1.145.513 1.145 1.144zm6.164-2.382c0 1.313-1.068 2.382-2.382 2.382h-1.981v-8.173c0-1.623-1.321-2.944-2.945-2.944h-9.191c-1.624 0-2.945 1.321-2.945 2.944v8.173h-1.982c-1.313 0-2.382-1.068-2.382-2.382v-19.436c0-1.313 1.069-2.382 2.382-2.382h14.771c.698 0 1.358.304 1.811.834l4.273 4.999c.369.432.571.982.571 1.549z"/><path d="m9.359 9.31h5.963c.497 0 .9-.403.9-.9s-.403-.9-.9-.9h-5.963c-.497 0-.9.403-.9.9s.403.9.9.9z"/><path d="m22.641 11.572h-13.282c-.497 0-.9.403-.9.9s.403.9.9.9h13.281c.497 0 .9-.403.9-.9s-.402-.9-.899-.9z"/></g><g id="Layer_25"/><g id="Layer_26"/></svg>