<svg id="Layer_1" enable-background="new 0 0 512.002 512.002" height="512" viewBox="0 0 512.002 512.002" width="512" xmlns="http://www.w3.org/2000/svg"><path d="m466.002 242.004h-20.002v-76.002h22.001c5.522 0 10-4.477 10-10v-16c0-23.159-18.841-42-42-42h-29.998v-30.002h22.001c5.522 0 10-4.477 10-10v-16c0-23.159-18.841-42-42-42h-288.002c-23.159 0-42 18.841-42 42 0 5.523 4.477 10 10 10s10-4.477 10-10c0-12.131 9.869-22 22-22s22 9.869 22 22v16c0 5.523 4.477 10 10 10h246v30.001h-238.003c-23.159 0-42 18.841-42 42v52h-19.997v-60.001c0-5.523-4.477-10-10-10s-10 4.477-10 10v60.001h-20.002c-11.028 0-20 8.972-20 20v280c0 11.028 8.972 20 20 20h420.001c11.027 0 19.999-8.972 19.999-20v-229.998c.001-11.027-8.971-19.999-19.998-19.999zm-316-194.004v-6c0-8.06-2.283-15.598-6.235-22h252.236c12.131 0 22 9.869 22 22v6zm285.999 70.001c12.131 0 22 9.869 22 22v6h-268.002v-6c0-8.06-2.283-15.598-6.235-22zm-310.002 74v-52c0-12.131 9.869-22 22-22s22 9.869 22 22v16c0 2.652 1.053 5.196 2.929 7.071 1.875 1.875 4.419 2.929 7.071 2.929h246.001v76.002h-232.524l-7.761-32.336c-2.615-10.897-10.173-17.666-19.723-17.666h-39.993c0 .001 0 .001 0 0zm-79.998 300.001v-280h119.369c.251.406.616 1.165.897 2.334l9.601 40.002c1.08 4.496 5.1 7.666 9.724 7.666h280.409l.001 229.999h-420.001z"/><path d="m306.002 344.503h-17.501v-17.5c0-11.028-8.972-20-19.999-20h-25c-11.028 0-20 8.972-20 20v17.5h-17.5c-11.028 0-20 8.972-20 20v25c0 11.028 8.972 20 20 20h17.5v17.5c0 11.028 8.972 20 20 20h25c11.027 0 19.999-8.972 19.999-20v-17.5h17.501c11.027 0 19.999-8.972 19.999-20v-25c0-11.028-8.972-20-19.999-20zm-27.501 45c-5.522 0-10 4.477-10 10l.001 27.5h-25v-27.5c0-5.523-4.477-10-10-10l-27.5.002v-25.002h27.5c5.523 0 10-4.477 10-10v-27.5h25v27.5c0 5.523 4.478 10 10 10h27.5l.001 25z"/><path d="m76.002 97.003c5.523 0 10-4.477 10-10v-.007c0-5.523-4.477-9.996-10-9.996s-10 4.48-10 10.003 4.477 10 10 10z"/></svg>