<svg id="Capa_1" enable-background="new 0 0 512.001 512.001" height="512" viewBox="0 0 512.001 512.001" width="512" xmlns="http://www.w3.org/2000/svg"><g><path d="m430.794 386.096-16.892 16.893-12.658-22.205-26.062 14.856 32.129 56.366 16.89-16.89 12.646 22.189 26.065-14.854z"/><path d="m416.866 350.088 62.574 17.138.001-23.886 24.633 6.748 7.927-28.934-62.559-17.139v23.89l-24.652-6.751z"/><path d="m367.226 479.44-17.138-62.574-28.934 7.924 6.751 24.652h-23.89l17.139 62.559 28.934-7.927-6.748-24.633z"/><path d="m116.362 136.819 14.856-26.062-22.205-12.658 16.892-16.892-56.355-32.117-14.854 26.064 22.189 12.646-16.889 16.89z"/><path d="m207.986 62.56-17.139-62.56-28.934 7.927 6.749 24.633-23.887.001 17.138 62.575 28.934-7.924-6.751-24.652z"/><path d="m95.136 161.913-62.575-17.138-.001 23.887-24.633-6.749-7.927 28.934 62.56 17.139v-23.89l24.652 6.751z"/><path d="m447.502 181.433c-.851-21.262 7.538-42.334 23.017-57.813l41.483-41.483-82.138-82.137-41.483 41.483c-15.479 15.479-36.551 23.868-57.813 23.016-60.34-2.417-128.807 28.582-183.147 82.922s-85.339 122.807-82.921 183.147c.851 21.262-7.538 42.334-23.017 57.813l-41.483 41.483 82.137 82.137 41.483-41.483c15.479-15.479 36.551-23.868 57.813-23.017 60.34 2.418 128.807-28.581 183.147-82.921s85.339-122.807 82.922-183.147zm-104.135 161.934c-42.486 42.764-103.331 76.096-160.733 74.159-29.604-1.185-58.845 10.398-80.227 31.779l-20.27 20.27-39.711-39.711 20.27-20.27c21.382-21.382 32.965-50.623 31.779-80.227-2.08-57.36 31.509-118.215 74.159-160.733 42.487-42.764 103.331-76.095 160.734-74.16 29.603 1.186 58.845-10.397 80.226-31.778l20.27-20.27 39.711 39.711-20.27 20.27c-21.382 21.382-32.965 50.623-31.779 80.227 2.08 57.36-31.509 118.215-74.159 160.733z"/><path d="m301.528 123.731c-41.441 19-77.039 43.22-105.808 71.989s-52.989 64.367-71.989 105.808l27.271 12.502c17.508-38.189 39.691-70.858 65.931-97.097s58.908-48.423 97.097-65.931z"/><path d="m360.999 197.971c-17.508 38.189-39.691 70.858-65.931 97.097s-58.908 48.423-97.097 65.931l12.502 27.271c41.441-19 77.039-43.22 105.808-71.989s52.989-64.367 71.989-105.808z"/><path d="m94.005 241.001h323.992v30h-323.992z" transform="matrix(.707 -.707 .707 .707 -106.039 256.001)"/></g></svg>