<svg xmlns="http://www.w3.org/2000/svg" viewBox="0 0 298 317" fill="currentColor">
<path d="M0 0 C1.18 1.64 1.18 1.64 2.44 3.81 C3.7 5.98 4.76 7.77 6.58 9.5 C8.32 11.34 8.65 12.75 9.25 15.19 C11.15 21.34 15.18 25.6 20.02 29.72 C22.76 32.87 23.88 36.23 25.25 40.12 C25.52 40.85 25.79 41.58 26.06 42.33 C28 47.68 28 47.68 28 50 C16.91 49.12 6.83 41.48 -0.3 33.39 C-5.77 26.31 -9.43 19.37 -9.06 10.25 C-8.35 5.7 -5.19 0 0 0 Z " fill="currentColor" transform="translate(108,141)"/>
<path d="M0 0 C3.9 1.53 5.95 3.33 8 7 C9.64 16.15 7.13 23.44 2 31 C-5.29 39.87 -14.25 46.05 -25 50 C-25.99 50 -26.98 50 -28 50 C-25.29 38.82 -22.42 32.09 -14.05 24.1 C-10.79 20.77 -9.41 17.41 -8.12 13 C-6.69 9.19 -4.67 7.07 -2 4 C-0.69 1.62 -0.69 1.62 0 0 Z " fill="currentColor" transform="translate(191,141)"/>
<path d="M0 0 C5.43 0.32 8.73 1.65 13 5 C15.19 9.39 14.38 15.34 13.31 20 C12 22 12 22 9.75 23.5 C5.87 24.2 4.25 23.14 1 21 C-2.43 17.29 -3.87 14.71 -4.25 9.62 C-3.97 5.52 -2.93 2.93 0 0 Z " fill="currentColor" transform="translate(110,200)"/>
<path d="M0 0 C2.42 2.84 2.97 4.72 3.38 8.44 C2.83 13.61 1.35 16.69 -2.38 20.31 C-5.11 22.07 -6.76 22.92 -10 23 C-13.31 21.49 -13.94 20.14 -15.31 16.75 C-16.06 12.66 -16.11 10.01 -15 6 C-11.03 1.04 -6.41 -2.53 0 0 Z " fill="currentColor" transform="translate(190,201)"/>
</svg>