<svg fill="currentColor" xmlns="http://www.w3.org/2000/svg" viewBox="0 0 511.999 511.999"> <g> <g> <path d="M477.418,98.354H262.25l-0.94-6.098c-2.808-18.223-20.093-33.047-38.531-33.047H115.962 c-18.44,0-35.724,14.826-38.529,33.047l-0.941,6.098h-0.669c-19.068,0-34.581,15.513-34.581,34.582v23.139H30.71 c-9.454,0-17.847,3.738-23.629,10.524c-5.783,6.787-8.14,15.665-6.64,24.999l36.69,228.225 c2.922,18.179,20.281,32.968,38.693,32.968h401.594c1.782,0,3.525-0.133,5.222-0.395c16.6-2.525,29.359-16.894,29.359-34.188 V132.935C511.999,113.867,496.486,98.354,477.418,98.354z M488.799,431.834c-2,2.347-4.764,3.905-7.98,4.543 c-0.133,0.025-0.269,0.04-0.403,0.062c-0.399,0.069-0.799,0.134-1.21,0.175c-0.589,0.057-1.185,0.091-1.789,0.091H75.824 c-10.67,0-21.116-8.901-22.811-19.436l-36.69-228.224c-0.74-4.605,0.325-8.87,3.001-12.012c2.677-3.14,6.72-4.87,11.384-4.87 h401.593c10.669,0,21.115,8.901,22.808,19.436l36.691,228.224C492.542,424.427,491.475,428.693,488.799,431.834z M81.921,156.076 v-0.001v-13.032h381.992v29.598c-7.36-9.889-19.244-16.566-31.61-16.566H81.921z M495.912,344.035l-15.912-98.978V134.998 c0-4.442-3.6-8.044-8.044-8.044H73.877c-4.443,0-8.044,3.601-8.044,8.044v21.075h-8.505v-23.139 c0-10.198,8.296-18.495,18.494-18.495h7.57c3.969,0,7.345-2.896,7.949-6.818l1.992-12.918 c1.619-10.521,11.982-19.409,22.629-19.409h106.817c10.647,0,21.01,8.889,22.633,19.41l1.989,12.916 c0.604,3.923,3.98,6.819,7.949,6.819h222.067c10.198,0,18.494,8.297,18.494,18.495V344.035z"/> </g> </g> </svg>