<svg fill="currentColor" viewBox="0 0 512 512" xmlns="http://www.w3.org/2000/svg"><g><path d="m458.585 302.1123c-9.67774-1.7041-15.48438 2.58008-20.60645 6.36133-6.61835 4.8905-8.70218 5.91458-19.04883 6.48975 1.58106-9.57031 2.78516-27.32227-7.19629-37.79248a21.36468 21.36468 0 0 0 -4.03-3.31641c-2.79883-9.06225-14.67994-49.02392-14.67994-74.23535 0-29.55957-10.98828-112.51465-11.45605-116.03125a4.9997 4.9997 0 0 0 -9.91211 1.31836c.11328.85449 11.36816 85.80957 11.36816 114.71289 0 22.83472 8.74414 55.6001 13.20948 70.84424-11.67481-.47461-23.45948 6.09058-25.81885 7.48486-7.35938 2.88916-15.25342.22168-22.1106-4.05835-2.801-6.68752 15.20728-39.81088 15.20728-66.18579 0-28.17383-3.72559-119.55566-3.7627-120.47558a5.00026 5.00026 0 1 0 -9.99218.4082c.03808.918 3.75488 92.09668 3.75488 120.06738a85.28362 85.28362 0 0 1 -3.28809 21.47608c-12.8435-25.99073-23.47461-92.82886-26.82324-119.54248a4.99978 4.99978 0 1 0 -9.92187 1.24414c1.3916 11.10839 13.77587 106.10351 32.89428 131.04907-3.16188 9.6015-6.27432 17.97485-7.57568 24.6958a42.57464 42.57464 0 0 0 -34.88892-9.26831 85.68647 85.68647 0 0 0 -26.99463 9.47583c14.83765-53.17407 8.84839-147.69483 8.5542-152.16528a5 5 0 1 0 -9.97851.65625c.0791 1.20043 7.6355 120.36694-13.86011 164.26806a31.54993 31.54993 0 0 0 -5.37988 9.90967c-13.05423-3.29389-24.50635.68725-30.0376 6.59473-.17627-.08643-.34766-.17847-.52808-.25977-7.07617-3.18457-15.39843-1.54394-24.73632 4.873-7.37793 5.07007-11.69043 10.76123-12.87842 16.96484-73.03749 21.84417-49.84328 16.47177-83.65772 31.749-22.292 10.07512-30.599.194-40.67676 7.46485-11.45061 8.26217-13.00808 17.3458-15.64965 25.79346-7.479 1.114-13.92383 3.13061-17.25171 8.811-2.51514 4.29346-2.65186 9.66211-.3772 16.65283a10.90807 10.90807 0 0 0 -.20389 17.43223c7.875 6.08952 13.50009 7.13867 20.05274 7.13867 18.061 0 44.78125-9.50952 54.08789-13.04345a11.195 11.195 0 0 0 5.21484.39795c.0625-.0127 6.585-1.26465 29.93555-5.541 22.38619-4.09374 49.93392 6.01327 70.541 9.78027 15.17269 2.76777 29.69727-6.49359 36.66211-20.13134 14.08929 1.12806 30.52836.141 42.20337-8.04 15.2146-3.522 35.99854 1.94726 57.991 7.75146 43.52045 11.48631 84.94347 21.0027 119.01953-8.97558 34.42157-30.28267 20.03904-87.96741-7.37403-92.80378zm-152.86331-34.91992a32.49807 32.49807 0 0 1 27.25781 7.59962c11.786 10.44978 26.98686 18.33245 41.59472 12.26074 1.0357-.43153 20.86064-12.48647 29.9209-2.98144 7.0647 7.41064 5.89331 22.66309 4.251 31.12915-9.97931-.00186-20.95481-.5061-29.58594-.5061-18.38562 0-38.44267 20.37348-50.99316 19.99316-3.95416-.24985-25.93587-10.3275-32.46826-12.72705-10.6001-15.63306-20.96411-24.31909-30.10865-28.93018 2.57054-9.98072 17.16917-21.60084 40.13158-25.8379zm-47.658 33.43653c8.8362 4.15061 16.53752 9.4159 26.41821 22.791a34.22028 34.22028 0 0 0 -7.86987 7.48657c-14.63794-10.62329-26.75684-14.45288-36.89551-14.77026a38.68616 38.68616 0 0 0 -5.91577-13.489c4.24671-4.02486 13.57083-6.29933 24.26298-2.01831zm-34.66061 55.91109a72.68435 72.68435 0 0 0 -9.376-2.07617c-1.84446-7.698-.30028-20.59324 6.925-24.01563 11.58619-5.49 26.61377-8.56347 50.48755 9.06006-.16772.40064-.33178.80078-.47632 1.19824-8.97542-.97234-17.50622.60494-26.104 2.17432-8.34547 1.50607-16.03712 7.19133-21.45623 13.65918zm-117.01172 28.18168c-1.1311-4.56592-1.18457-10.72485 1.0647-13.37012 1.44629-1.70117 4.31934-1.8916 8.54-.56543 19.13728 6.00633 66.39791-18.1627 84.10156-27.87573 1.22266 1.01929 2.36084 1.87573 3.32154 2.55566a42.882 42.882 0 0 0 .28222 7.95582c-1.51172-.07715-3.05908-.13379-4.66919-.1543-8.29-.08887-16.6709 4.6875-27.28711 10.75488-16.12154 9.21338-36.18135 20.67627-65.35372 20.69922zm100.219-75.76855c11.725-8.05718 18.96454-5.87365 22.97558 8.02734a55.56825 55.56825 0 0 0 -12.915 4.43066c-5.032 2.38306-8.82568 6.88257-11.06591 13.01416-11.16335-9.92717-10.02917-17.89075 1.00533-25.47216zm-137.02536 56.04587c4.82533-3.48481 16.22256 3.80606 38.94238-6.46093 34.166-15.43944 10.48589-9.7019 80.33179-30.65992a27.9107 27.9107 0 0 0 4.06933 7.56079c-33.90161 18.45142-63.835 28.98194-73.93628 25.80616-10.47851-3.29-16.20117.15625-19.15429 3.6289a16.20937 16.20937 0 0 0 -2.82422 4.9253c-5.30591.91406-10.375 3.18872-15.30762 5.40283-8.90092 3.99385-11.58286 5.02616-22.8418 6.24536 1.6821-5.80857 3.59739-11.30955 10.72071-16.44849zm-30.124 31.54981c1.89649-3.23828 9.8545-4.05762 17.54981-4.84961 14.90932-1.53735 18.07761-2.56635 28.791-7.374a81.93474 81.93474 0 0 1 9.87959-3.9512 37.00021 37.00021 0 0 0 1.3667 8.01905 12.59047 12.59047 0 0 0 -.91919 1.019c-17.03691-1.2697-24.56371 12.95944-43.00291 15.04595-4.13735.46712-8.65136 1.1592-12.85278 1.45874-1.52175-4.34789-1.83132-7.63012-.81228-9.36791zm3.63086 25.11426a35.77346 35.77346 0 0 1 -6.72265-3.99414.89032.89032 0 0 1 .53735-1.60987l.00757.00049.0083-.001h.00635c5.626-.01955 11.89608-1.05066 17.32226-1.66406 19.125-2.16421 27.639-14.18707 38.54566-15.01709a24.99544 24.99544 0 0 0 3.10351 12.75879c-18.34527 6.512-44.38971 13.46049-52.80841 9.5269zm168.79-7.18946c-20.683-3.78021-49.18723-14.3482-74.14062-9.77832-21.16895 3.876-28.54785 5.27539-29.81836 5.51758-4.03411.26144-8.4992-15.32573-1.56543-15.49023 31.84765-.01368 54.09961-12.73145 70.34961-22.01856 8.85547-5.06152 16.51367-9.4375 22.0664-9.4375 66.26266.00002 40.85365 56.27674 13.10838 51.20705zm38.25537-20.08325c2.61659-13.64293-3.20117-26.44265-16.8457-33.82739 3.12744-3.12256 7.91724-6.86157 13.34326-7.84033 14.13715-2.58179 29.15674-5.10011 39.7832 5.52636a20.08621 20.08621 0 0 1 3.55762 21.96c-6.27328 13.12128-25.32303 15.02241-39.8384 14.18138zm209.21631-6.98218c-31.31152 27.54688-73.042 16.53321-109.86133 6.81446-18.18017-4.79834-35.58325-9.38575-50.74414-9.198a30.071 30.071 0 0 0 -5.25976-33.84595 35.10233 35.10233 0 0 0 -12.762-8.21924c2.54289-5.73451 8.49064-11.42527 10.65943-11.92138 6.61167 2.16224 29.95522 13.592 36.65625 13.64843 16.98561.15047 36.04752-19.99218 51.11816-19.99218 9.59613 0 22.50168.65056 33.574.48046 19.02248-.29254 22.99695-2.60707 31.18579-8.65722 4.501-3.32422 7.47461-5.5166 12.92676-4.55762 18.40049 3.24683 30.92544 50.44656 2.50682 75.44826z"/><path d="m214.07325 370.18164a5.00089 5.00089 0 0 0 -6.90528 1.52246c-8.81933 13.81153-18.61523 13.67481-19.16406 13.626a5.00008 5.00008 0 0 0 -.71094 9.97461c7.38384.60689 19.46606-4.38012 28.30274-18.21778a5 5 0 0 0 -1.52246-6.90529z"/><path d="m419.93165 340.22754a5.00669 5.00669 0 0 0 -1.79395 6.835c1.68067 2.8916 5.46289 11.81152 2.81152 18.27637-1.60546 3.915-5.543 6.75-11.70312 8.42676a4.99983 4.99983 0 1 0 2.62695 9.64843c9.34082-2.542 15.51563-7.36621 18.35059-14.33593 5.043-12.39649-3.11231-26.48438-3.46192-27.07813a4.99732 4.99732 0 0 0 -6.83007-1.7725z"/><path d="m302.58692 311.65234a5.001 5.001 0 0 1 4.51172-5.44531c3.78606-.3509 7.09181.38678 13.35644-9.5957a5.00322 5.00322 0 0 1 7.85059-.7959c4.0625 4.251 8.01953 1.71582 8.46 1.41309a4.99955 4.99955 0 1 1 5.68945 8.22265 16.42172 16.42172 0 0 1 -16.62793.93653c-7.33206 9.43471-13.32011 9.34471-17.79492 9.77636a5.00093 5.00093 0 0 1 -5.44535-4.51172z"/></g></svg>