<svg xmlns="http://www.w3.org/2000/svg" viewBox="0 0 90 90" fill="currentColor"><path d="m42.335 26.756c4.077 1.188 8.109.011 13.118-1.995.74-.292 1.063.145.986.713-.328 2.251.322 4.443 1.12 6.458.266.662-.026.869-.485 1.14-1.025.614-3.011 1.24-4.911 1.672-1.902.434-3.833.6-4.615.428-.792-.177-1.36-.667-2.256-1.35-1.134-.864-2.385-1.203-3.479-.838-1.093.364-1.833 1.338-2.246 2.526-.224.651-.853 1.13-1.724 1.119-.874-.009-2.066-.531-3.219-2.27-.197-.307-.353-.583-.462-.833-.751-1.73.661-2.058 1.557-1.515 1.281.781 2.833.755 3.984-.01 1.145-.766 1.713-2.287 1.438-4.057-.176-1.147.511-1.385 1.194-1.188zm-2.308-1.218c-.697.688-.948 1.734-.74 2.787.235 1.167-.129 1.766-.635 2.104-.51.339-1.256.396-1.953-.03-1.323-.798-2.973-.828-3.995.219-.505.52-.765 1.295-.699 2.12.063.823.407 1.697 1.043 2.662 1.396 2.109 3.156 3.104 4.776 3.118 1.624.021 3.036-.957 3.531-2.389.287-.83.688-1.22 1.057-1.344.375-.125.912-.079 1.734.547.839.634 1.683 1.396 2.995 1.686 1.469.324 3.417.038 5.448-.426 2.025-.463 4.036-1.135 5.375-1.85.641-.342 1.172-.833 1.428-1.489.26-.656.192-1.402-.094-2.068-.782-1.807-1.244-3.681-.99-5.432.136-.916-.188-1.833-.869-2.421-.683-.584-1.75-.74-2.719-.309-4.902 1.954-8.422 2.912-11.855 1.917-1.056-.309-2.144-.085-2.838.598z"/><path d="m44.896 39.881c3.838 1.828 8.011 1.307 13.272.135.776-.17 1.025.308.854.855-.678 2.172-.391 4.443.078 6.558.156.698-.172.854-.661 1.052-1.115.438-3.172.734-5.121.86-1.942.123-3.874-.021-4.62-.319-.754-.296-1.234-.869-2.016-1.692-.979-1.032-2.161-1.567-3.296-1.379-1.136.181-2.021 1.025-2.62 2.129-.323.609-1.021.98-1.885.833-.86-.15-1.948-.858-2.808-2.76-.151-.333-.26-.631-.328-.896-.459-1.828.984-1.926 1.781-1.244 1.141.974 2.677 1.197 3.932.624 1.256-.572 2.063-1.984 2.074-3.771.006-1.167.73-1.292 1.364-.985zm-2.082-1.572c-.798.568-1.213 1.563-1.172 2.63.047 1.192-.412 1.725-.964 1.979-.557.25-1.301.188-1.926-.344-1.177-1-2.803-1.296-3.974-.427-.584.432-.964 1.162-1.032 1.984-.068.824.13 1.74.604 2.792 1.043 2.308 2.621 3.568 4.213 3.849 1.601.275 3.152-.464 3.871-1.797.416-.771.869-1.094 1.26-1.162.386-.063.912.074 1.625.822.719.762 1.433 1.647 2.683 2.143 1.395.557 3.369.582 5.447.447 2.073-.131 4.167-.475 5.6-.964.686-.234 1.291-.631 1.65-1.24.36-.604.412-1.353.234-2.057-.485-1.905-.635-3.833-.104-5.515.276-.891.109-1.844-.469-2.532-.583-.682-1.615-1.011-2.64-.739-5.152 1.14-8.776 1.525-12.005-.005-.994-.474-2.104-.427-2.901.136z"/><path d="m38.792 13.605c4.161.864 8.09-.63 12.928-3.021.708-.348 1.066.058 1.031.63-.146 2.271.672 4.407 1.631 6.35.312.64.036.875-.396 1.176-.975.699-2.906 1.475-4.765 2.057-1.86.579-3.772.896-4.568.787-.797-.115-1.406-.557-2.354-1.167-1.197-.771-2.474-1.011-3.531-.563-1.063.448-1.725 1.48-2.038 2.693-.176.667-.765 1.197-1.635 1.254-.875.058-2.099-.369-3.386-2.014-.224-.287-.401-.548-.532-.792-.879-1.661.5-2.104 1.434-1.631 1.337.677 2.891.527 3.973-.328 1.084-.854 1.531-2.411 1.115-4.156-.265-1.129.402-1.42 1.093-1.275zm-2.396-1.031c-.64.735-.807 1.803-.514 2.833.327 1.147.01 1.772-.47 2.147-.479.379-1.219.494-1.954.125-1.379-.693-3.031-.595-3.957.525-.469.563-.663 1.36-.537 2.172.13.817.541 1.661 1.256 2.573 1.557 1.995 3.385 2.844 5.005 2.733 1.618-.109 2.946-1.192 3.333-2.662.219-.848.583-1.27.947-1.421.36-.155.902-.15 1.772.407.88.566 1.785 1.26 3.115 1.448 1.49.208 3.411-.234 5.4-.855 1.985-.625 3.934-1.453 5.213-2.27.609-.391 1.1-.918 1.308-1.594.202-.672.079-1.412-.26-2.057-.923-1.734-1.532-3.568-1.412-5.333.057-.928-.333-1.818-1.058-2.344-.729-.533-1.807-.599-2.74-.095-4.729 2.333-8.167 3.568-11.667 2.845-1.07-.224-2.138.084-2.78.823z"/><path d="m40.959 68.122c3.339 2.635 7.521 3.052 12.912 3.077.797.005.932.532.645 1.026-1.145 1.969-1.369 4.238-1.379 6.405-.005.715-.359.798-.88.882-1.188.182-3.26.015-5.182-.298-1.922-.308-3.776-.88-4.438-1.333-.667-.459-1.011-1.125-1.588-2.099-.724-1.229-1.756-2.011-2.907-2.084-1.15-.068-2.203.558-3.027 1.5-.452.521-1.219.729-2.02.391-.808-.333-1.713-1.266-2.13-3.312-.068-.36-.109-.673-.121-.949-.041-1.879 1.386-1.655 2.011-.816.896 1.208 2.349 1.766 3.699 1.483 1.354-.281 2.448-1.475 2.858-3.218.266-1.13.996-1.094 1.547-.655zm-1.681-1.995c-.901.375-1.526 1.255-1.724 2.307-.224 1.172-.787 1.588-1.382 1.708-.598.125-1.312-.099-1.801-.76-.926-1.234-2.448-1.886-3.781-1.297-.667.291-1.197.917-1.448 1.703-.25.785-.255 1.725-.027 2.859.5 2.479 1.756 4.063 3.256 4.688 1.495.625 3.172.25 4.167-.896.578-.655 1.094-.869 1.484-.849.391.026.875.271 1.406 1.161.531.901 1.031 1.928 2.14 2.688 1.235.85 3.158 1.313 5.209 1.646 2.058.327 4.171.463 5.676.303.724-.079 1.396-.328 1.886-.845.485-.511.704-1.229.683-1.953-.047-1.963.234-3.88 1.125-5.407.468-.801.517-1.771.104-2.566-.416-.797-1.35-1.344-2.407-1.308-5.276-.03-8.899-.463-11.708-2.673-.863-.676-1.958-.879-2.858-.509z"/><path d="m43.814 53.866c3.505 2.412 7.702 2.557 13.083 2.229.792-.047.964.47.709.984-1.016 2.037-1.09 4.324-.959 6.485.042.714-.308.817-.822.932-1.167.261-3.25.229-5.188.042-1.943-.184-3.828-.635-4.516-1.042-.692-.417-1.083-1.058-1.719-1.989-.807-1.178-1.886-1.891-3.036-1.891-1.15.006-2.161.697-2.921 1.692-.423.546-1.167.808-1.996.521-.828-.281-1.791-1.15-2.337-3.166-.095-.354-.158-.661-.183-.938-.167-1.876 1.276-1.745 1.954-.947.973 1.145 2.457 1.609 3.786 1.238 1.333-.364 2.348-1.629 2.646-3.395.187-1.145.92-1.157 1.499-.755zm-1.808-1.881c-.875.433-1.447 1.35-1.572 2.412-.147 1.182-.678 1.635-1.266 1.797-.589.16-1.313-.016-1.85-.641-1-1.172-2.563-1.725-3.854-1.052-.651.339-1.135.994-1.333 1.796-.197.803-.146 1.74.156 2.854.662 2.442 2.021 3.938 3.552 4.464 1.532.525 3.183.041 4.105-1.161.53-.698 1.03-.942 1.426-.942.391 0 .891.213 1.473 1.061.595.871 1.158 1.855 2.314 2.543 1.287.771 3.234 1.109 5.307 1.307 2.068.199 4.188.188 5.682-.068.714-.123 1.369-.421 1.823-.962.453-.543.625-1.271.557-1.995-.172-1.959-.021-3.885.771-5.464.417-.833.401-1.803-.063-2.573-.467-.771-1.432-1.255-2.489-1.146-5.266.313-8.911.114-11.854-1.906-.905-.626-2.009-.755-2.885-.324z"/></svg>
