<svg xmlns="http://www.w3.org/2000/svg" viewBox="0 0 500 500" fill="currentColor"><path d="m28.961 478.512c-3.839 0-7.678-1.465-10.606-4.394-5.858-5.857-5.858-15.355 0-21.213l418.973-418.973c5.857-5.857 15.355-5.857 21.213 0s5.858 15.355 0 21.213l-418.974 418.973c-2.928 2.929-6.767 4.394-10.606 4.394z"/><path d="m431.994 60.479c-10.606-10.606-29.427 4.359-79.163 11.465s-118.758-6.09-198.944 63.946-68.007 164.433-79.172 225.345c-11.099 60.55-31.566 66.872-20.959 77.479s15.567-8.792 76.479-19.957 155.31 1.015 225.346-79.172 56.841-149.208 63.946-198.944c7.106-49.735 23.074-69.556 12.467-80.162z"/><path d="m406.236 84.327s-53.989 4.061-66.845 6.711c-82.472 16.999-142.643 49.845-182.894 99.579-43.544 53.804-56.8 118.204-68.495 175.024-2.922 14.195-10.555 47.28-10.721 47.909 0 0 33.004-9.282 44.898-11.73 56.82-11.695 121.221-24.951 175.024-68.495 60.749-49.165 96.287-128.071 108.541-241.015.838-4.823.492-7.983.492-7.983z"/><path d="m153.771 135.596c-10.284 8.981-19.046 18.365-26.543 28.024l2.21 18.628 52.676 5.936-7.42 28.192 64.64 26.624 20.723 117.298.654-135.195-55.604-24.896 30.444-36.672-57.009-4.061-7.022-38.196c-5.853 4.343-11.77 9.095-17.749 14.318z"/></svg>
