<?xml version="1.0" encoding="UTF-8"?>
<!-- Generator: visioncortex VTracer 0.6.12 -->
<svg version="1.1" xmlns="http://www.w3.org/2000/svg" width="298" height="317">
<path d="M0 0 C98.34 0 196.68 0 298 0 C298 104.61 298 209.22 298 317 C199.66 317 101.32 317 0 317 C0 212.39 0 107.78 0 0 Z M123 22 C122.67 22.5 122.67 22.5 121 25 C118.72 25.26 118.72 25.26 116.06 25.12 C112.89 24.98 111.05 24.98 108 26 C106.65 32.24 106.65 32.24 108.31 35.88 C110 38 110 38 112 39 C113.87 39.07 115.75 39.08 117.62 39.06 C118.63 39.05 119.63 39.04 120.66 39.04 C121.43 39.02 122.21 39.01 123 39 C123.1 40.09 123.21 41.19 123.31 42.31 C124.15 46.82 124.15 46.82 127 49 C138.48 52.91 160.69 53.86 172 49 C174.91 45.84 175.52 43.24 176 39 C176.75 39.03 177.5 39.07 178.27 39.11 C178.76 39.12 178.76 39.12 181.25 39.19 C182.22 39.22 183.2 39.26 184.2 39.29 C187.42 38.96 188.71 38.26 191 36 C192.01 32.35 192.24 29.59 191 26 C187.23 24.88 183.92 25.04 180.02 25.26 C179.36 25.17 178.69 25.09 178 25 C177.67 24.5 177.67 24.5 176 22 C175.3 22.07 174.6 22.14 173.88 22.21 C165.74 22.97 157.68 23.15 149.5 23.12 C148.89 23.13 148.89 23.13 145.78 23.14 C138.13 23.13 130.6 22.77 123 22 Z M124 52 C122.44 53.41 122.44 53.41 121 55 C117.89 55.44 114.85 55.5 111.71 55.59 C110.82 55.73 109.92 55.86 109 56 C107 59 107 59 107.19 62.5 C108.26 67.1 108.26 67.1 111 69 C113.88 69.96 115.7 70.11 118.69 70.06 C119.5 70.05 120.3 70.04 121.14 70.04 C121.75 70.02 122.37 70.01 123 70 C123.25 71.28 123.5 72.56 123.75 73.88 C124.74 77.79 124.74 77.79 126.75 79.44 C134.27 81.32 141.67 81.18 149.38 81.19 C150.02 81.19 150.02 81.19 153.28 81.22 C169.6 81.25 169.6 81.25 173.94 77.19 C175.1 74.79 175.63 72.63 176 70 C176.3 70.02 176.3 70.02 177.79 70.11 C182.69 70.27 186.09 70.32 190 67 C192.03 64.33 192.02 63.2 191.69 59.81 C191 57 191 57 190 56 C187.81 55.93 185.62 55.92 183.44 55.94 C182.24 55.95 181.04 55.96 179.81 55.96 C179.35 55.97 179.35 55.97 177 56 C176.67 55.34 176.67 55.34 175 52 C174.02 52.16 173.04 52.32 172.03 52.49 C167.83 53.09 163.7 53.14 159.47 53.13 C158.67 53.13 157.88 53.13 157.06 53.14 C155.39 53.14 153.72 53.13 152.05 53.13 C149.51 53.13 146.97 53.13 144.43 53.14 C142.79 53.14 141.16 53.13 139.53 53.13 C138.78 53.13 138.03 53.14 137.25 53.14 C133.75 53.12 130.55 52.93 127.06 52.4 C126.05 52.27 125.04 52.14 124 52 Z M60 72 C59.49 72.28 59.49 72.28 56.94 73.69 C48.27 80.51 42.51 88.39 41.12 99.44 C40.58 109.51 43.26 117.7 49 126 C51.16 128.36 53.43 130.55 55.75 132.75 C64.34 141.35 68.13 150.53 69.12 162.44 C69.89 170.89 69.89 170.89 71 172 C72.05 172.04 73.1 172.08 74.19 172.12 C79.35 173.31 81.16 175.69 84 180 C85.14 182.04 86.17 184.08 87.14 186.2 C88 188 88 188 90 191 C91.49 197.19 90.86 203.28 88 209 C87.22 216.63 90.01 222.12 94.25 228.25 C100.53 234.53 106.44 237.1 115.31 237.25 C123.59 237.13 129.1 234.73 135.18 229.09 C139.68 223.92 142.01 217.48 144 211 C145 210 145 210 148.31 209.88 C151.19 209.97 153.29 210.24 156 211 C156.1 211.57 156.2 212.14 156.3 212.72 C158.16 222.32 162.03 228.34 170 234 C176.63 237.84 184.02 237.89 191.42 236.57 C198.15 234.7 203.34 230.78 207.35 225.08 C210.38 219.63 211.96 213.66 210.35 207.52 C209.78 205.84 209.22 204.16 208.65 202.48 C207.21 196.98 208.25 192.5 210.75 187.5 C210.93 187.22 210.93 187.22 211.82 185.83 C213.66 182.97 215.17 179.93 216.75 176.92 C218 175 218 175 221 173 C223.33 172.64 225.66 172.3 228 172 C229.76 170.24 229.34 167.84 229.54 165.48 C230.87 150.72 235.8 139.78 246.62 129.5 C250.4 125.85 252.77 121.73 255 117 C255.37 116.25 255.73 115.51 256.11 114.74 C258.44 107.53 258.34 96.99 255.38 89.94 C254.26 87.91 254.26 87.91 253 86 C252.56 85.31 252.13 84.61 251.68 83.9 C246.23 75.95 238.44 70.21 229 68 C216.67 66.77 206.64 68.43 196.8 76.39 C190.95 81.62 187.92 87.07 184.57 94.15 C182.69 97.56 180.45 99.61 177.57 102.16 C175.58 104.5 175.1 106.61 174.31 109.56 C173.16 113.23 172.42 114.69 169.3 117 C159.58 121.97 149.44 123.73 138.81 120.75 C137.2 120.19 135.59 119.61 134 119 C133.33 118.77 132.65 118.54 131.96 118.3 C128.76 116.91 127.34 115.79 125.93 112.54 C125.31 110.62 124.7 108.7 124.1 106.77 C122.43 102.57 119.65 99.63 116 97 C115.34 97 114.68 97 114 97 C113.83 96.43 113.66 95.86 113.48 95.28 C110.07 84.39 105.22 77.4 95.34 71.38 C84.51 66.11 70.41 65.42 60 72 Z M113 81 C112.67 81.33 112.34 81.66 112 82 C112 88.1 114.21 91.01 118.21 95.5 C120 97 120 97 123 97 C123.09 97.74 123.17 98.47 123.26 99.23 C124.41 107.21 124.41 107.21 127.19 110.94 C136.33 117.64 144.65 120.09 156 119 C162.88 117.17 169.97 114.04 174 108 C174.2 105.08 174.2 105.08 174.12 101.81 C174.11 100.73 174.09 99.64 174.07 98.52 C174.05 97.69 174.02 96.86 174 96 C174.61 96.2 175.22 96.39 175.84 96.6 C178 97 178 97 180.5 95.44 C183.92 92.1 186.71 89.1 187.38 84.25 C187 82 187 82 185 80 C182.84 79.59 182.84 79.59 180.38 79.38 C179.56 79.3 178.74 79.23 177.9 79.15 C177.27 79.1 176.65 79.05 176 79 C175.67 80.32 175.34 81.64 175 83 C174.42 82.79 173.84 82.59 173.25 82.38 C171 82 171 82 169.34 82.96 C166.02 84.43 162.81 84.27 159.23 84.23 C158.48 84.23 157.73 84.23 156.95 84.23 C155.36 84.23 153.77 84.22 152.18 84.21 C149.77 84.19 147.36 84.19 144.95 84.19 C143.4 84.18 141.85 84.17 140.3 84.17 C139.94 84.17 139.94 84.17 138.14 84.16 C133.35 84.12 128.74 83.67 124 83 C123.67 81.68 123.34 80.36 123 79 C119.08 79 116.62 79.63 113 81 Z M60.88 179.44 C59.73 181 58.59 182.57 57.47 184.16 C53.69 186.98 50.14 186.32 45.56 186.06 C35.16 185.53 35.16 185.53 31 189 C28.3 193.04 28.34 196.25 29 201 C30.69 204.06 30.69 204.06 33 207 C37.35 212.89 39.23 218.4 40.56 225.56 C40.77 226.6 40.97 227.64 41.18 228.71 C43.45 241.14 44.58 253.73 45.74 266.31 C45.78 266.73 45.78 266.73 45.98 268.83 C46.13 270.42 46.27 272 46.4 273.58 C46.89 278.89 46.89 278.89 48 280 C49.33 280.1 50.67 280.13 52 280.13 C52.8 280.13 53.61 280.14 54.44 280.14 C54.86 280.13 54.86 280.13 57 280.12 C57.85 280.13 58.69 280.13 59.56 280.14 C60.37 280.14 61.17 280.13 62 280.13 C62.37 280.13 62.37 280.13 64.25 280.13 C66 280 66 280 67 279 C67.13 277.24 67.19 275.48 67.22 273.72 C67.23 273.16 67.23 273.16 67.29 270.3 C67.31 269.07 67.34 267.84 67.36 266.57 C67.42 263.97 67.49 261.38 67.55 258.78 C67.66 254.68 67.75 250.58 67.82 246.48 C67.89 242.53 68 238.58 68.11 234.63 C68.12 233.41 68.14 232.2 68.15 230.95 C68.48 220.6 71.39 213.09 78.69 205.62 C82.8 201.38 85.27 198.42 85.44 192.38 C85.32 186.53 83.33 181.77 80 177 C77.3 174.58 76.32 174.04 72.62 173.62 C67.46 174.16 64.31 175.5 60.88 179.44 Z M218 178 C214.35 183.08 213.24 188.05 213.49 194.27 C214.83 201.44 220.47 206.8 225.39 211.88 C230.68 218.83 230.52 225.89 230.7 234.34 C230.73 235.61 230.77 236.89 230.81 238.2 C230.91 241.57 230.99 244.94 231.07 248.31 C231.19 253.08 231.33 257.85 231.46 262.61 C231.53 265.15 231.6 267.69 231.66 270.22 C231.69 271.36 231.72 272.5 231.75 273.67 C231.76 274.18 231.76 274.18 231.82 276.72 C232 279 232 279 233 280 C234.33 280.1 235.67 280.13 237 280.13 C237.8 280.13 238.61 280.14 239.44 280.14 C239.86 280.13 239.86 280.13 242 280.12 C242.85 280.13 243.69 280.13 244.56 280.14 C245.37 280.14 246.17 280.13 247 280.13 C247.37 280.13 247.37 280.13 249.25 280.13 C251 280 251 280 252 279 C252.25 276.84 252.45 274.66 252.61 272.49 C252.73 271.11 252.84 269.73 252.95 268.34 C253.01 267.62 253.07 266.89 253.13 266.13 C257.19 216.3 257.19 216.3 268.5 202.92 C270.61 200.22 271.22 198.43 271 195 C269.76 191.76 268.22 188.91 265.38 186.79 C261.16 185.39 256.68 185.97 252.29 186.17 C247.64 186.28 244.78 186.02 241 183 C239.34 181.25 239.34 181.25 237.94 179.44 C235.86 176.76 234.19 175.25 231 174 C225.18 173.45 222.1 173.45 218 178 Z " fill="#000000" transform="translate(0,0)"/>
<path d="M0 0 C1.18 1.64 1.18 1.64 2.44 3.81 C3.7 5.98 4.76 7.77 6.58 9.5 C8.32 11.34 8.65 12.75 9.25 15.19 C11.15 21.34 15.18 25.6 20.02 29.72 C22.76 32.87 23.88 36.23 25.25 40.12 C25.52 40.85 25.79 41.58 26.06 42.33 C28 47.68 28 47.68 28 50 C16.91 49.12 6.83 41.48 -0.3 33.39 C-5.77 26.31 -9.43 19.37 -9.06 10.25 C-8.35 5.7 -5.19 0 0 0 Z " fill="#000000" transform="translate(108,141)"/>
<path d="M0 0 C3.9 1.53 5.95 3.33 8 7 C9.64 16.15 7.13 23.44 2 31 C-5.29 39.87 -14.25 46.05 -25 50 C-25.99 50 -26.98 50 -28 50 C-25.29 38.82 -22.42 32.09 -14.05 24.1 C-10.79 20.77 -9.41 17.41 -8.12 13 C-6.69 9.19 -4.67 7.07 -2 4 C-0.69 1.62 -0.69 1.62 0 0 Z " fill="#000000" transform="translate(191,141)"/>
<path d="M0 0 C5.43 0.32 8.73 1.65 13 5 C15.19 9.39 14.38 15.34 13.31 20 C12 22 12 22 9.75 23.5 C5.87 24.2 4.25 23.14 1 21 C-2.43 17.29 -3.87 14.71 -4.25 9.62 C-3.97 5.52 -2.93 2.93 0 0 Z " fill="#000000" transform="translate(110,200)"/>
<path d="M0 0 C2.42 2.84 2.97 4.72 3.38 8.44 C2.83 13.61 1.35 16.69 -2.38 20.31 C-5.11 22.07 -6.76 22.92 -10 23 C-13.31 21.49 -13.94 20.14 -15.31 16.75 C-16.06 12.66 -16.11 10.01 -15 6 C-11.03 1.04 -6.41 -2.53 0 0 Z " fill="#000000" transform="translate(190,201)"/>
</svg>
