<svg id="_x33_8_Folder" enable-background="new 0 0 48 48" height="512" viewBox="0 0 48 48" width="512" xmlns="http://www.w3.org/2000/svg"><path d="m47.8 22.4-5.5 17.2c-.5 1.7-2.1 2.8-3.8 2.8h-34.5c-1.3 0-2.4-.6-3.2-1.6-1-1.3-.8-3.2-.8-2.4v-29.8c0-1.7 1.3-3 3-3h11c1.2 0 2.4.8 2.8 1.9l.9 2.5c.1.4.5.6.9.6h17.7c1.7 0 3 1.3 3 3v3.5h4.7c2.8 0 4.6 2.6 3.8 5.3zm-45.8 9.1 3.7-11.5c.5-1.7 2.1-2.8 3.8-2.8h27.9v-3.5c0-.5-.5-1-1-1h-17.7c-1.2 0-2.3-.8-2.8-1.9l-.9-2.5c-.1-.4-.5-.6-.9-.6h-11.1c-.6 0-1 .4-1 1zm42-12.3h-34.5c-.9 0-1.6.6-1.9 1.4-5.5 18-6.2 17.4-5.2 19 .4.5 1 .8 1.6.8h34.5c.8 0 1.6-.6 1.9-1.4l5.5-17.2c.4-1.5-.7-2.6-1.9-2.6z"/></svg>