<svg xmlns="http://www.w3.org/2000/svg" viewBox="0 0 512 512">
<path d="M147.69 41.38 C147.22 41.47 147.22 41.47 144.85 41.97 C135.25 44.15 126.47 47.26 120.25 55.25 C119 58 119 58 118.91 60 C118.71 62.81 118.35 64.5 117 67 C113.47 69.6 109.79 71.66 105.95 73.76 C88.94 83.14 70.63 102.1 65 121 C62.08 131.5 62.88 144.39 68 154 C70.71 158.56 73.81 162.77 77 167 C76.49 167.39 75.98 167.78 75.46 168.18 C63.84 177.62 59.27 190.57 57.66 205.09 C57.13 216.48 59.76 227.1 62.42 238.08 C62.58 238.74 62.74 239.4 62.9 240.08 C63.34 241.89 63.79 243.69 64.24 245.5 C65.72 252.32 66.22 259.18 66.55 266.13 C66.58 266.57 66.58 266.57 66.68 268.76 C67.13 278.79 67.14 288.82 67.13 298.86 C67.13 300.91 67.13 302.96 67.14 305.01 C67.14 309.28 67.14 313.55 67.13 317.82 C67.12 323.2 67.13 328.57 67.13 333.94 C67.15 356.25 67 378.51 66.11 400.81 C65.23 425.99 65.23 425.99 67.33 428.74 C69.91 430.68 71.88 430.39 75 430 C77.37 428.31 77.94 427.33 78.49 424.45 C78.55 423.46 78.6 422.48 78.66 421.46 C78.72 420.39 78.79 419.31 78.85 418.2 C78.88 417.67 78.88 417.67 79 415 C79.05 414.14 79.1 413.29 79.15 412.4 C81.77 363.81 82.39 314.61 80 266 C79.95 265 79.9 264.01 79.85 262.98 C79.09 249.17 76.14 236.2 72.7 222.83 C71.65 218.58 70.81 214.3 70 210 C70.59 210.16 71.18 210.33 71.79 210.5 C81.52 212.7 94.13 209.9 103 206 C105.54 203.88 106.7 202.35 107 199 C106.01 196.33 105.57 195.29 103 194 C98.99 193.59 95.8 194.29 92 195.44 C85.41 197.37 78.84 197.71 72 198 C75.46 188.69 79.03 180.22 88.52 175.84 C94.37 173.56 99.75 172.41 106 172 C105.92 173.28 105.84 174.56 105.75 175.88 C105.75 182.61 108.3 188.06 111.62 193.81 C118.58 200.21 127.2 201.92 136.25 203.38 C158.27 207.34 158.27 207.34 164.85 215.21 C165.23 215.8 165.61 216.39 166 217 C165.28 217.25 164.56 217.49 163.82 217.75 C158.51 220.1 154.38 224.25 150 228 C149.14 228.73 148.27 229.46 147.38 230.21 C141.15 235.6 136.03 241.5 131 248 C130.25 248.93 129.49 249.85 128.72 250.8 C110.66 273.63 105.82 299.62 104.12 327.94 C103.99 330.11 103.86 332.28 103.72 334.44 C101.86 364.24 101.86 364.24 101.62 377.56 C101.6 378.31 101.57 379.05 101.55 379.81 C101.53 383 101.62 384.59 103.83 386.97 C106.91 388.43 108.78 387.98 112 387 C114.04 383.94 114.29 383.03 114.53 379.52 C114.6 378.57 114.66 377.61 114.73 376.62 C114.8 375.55 114.87 374.48 114.94 373.38 C115.02 372.23 115.1 371.09 115.18 369.92 C115.68 362.65 116.09 355.39 116.48 348.12 C116.71 343.81 116.96 339.5 117.2 335.19 C117.37 332.01 117.53 328.82 117.68 325.64 C118.84 303.81 123.08 285.1 134 266 C133.89 266.6 133.78 267.2 133.66 267.83 C128.67 295.22 126.9 322.02 126.46 349.83 C126.42 352.43 126.38 355.03 126.33 357.63 C126.24 363.07 126.16 368.5 126.07 373.94 C125.97 380.14 125.87 386.34 125.76 392.55 C125.66 398.6 125.56 404.65 125.47 410.7 C125.42 413.24 125.38 415.77 125.34 418.31 C125.22 425.34 125.13 432.38 125.05 439.42 C125 443.23 124.9 447.04 124.8 450.85 C124.75 453.41 124.71 455.97 124.66 458.53 C124.62 459.72 124.58 460.91 124.54 462.14 C124.44 470.34 124.44 470.34 127.36 473.78 C130 475 130 475 132.62 475.06 C135.98 473.56 136.51 472.4 138 469 C138.48 465.15 138.49 461.31 138.51 457.43 C138.53 456.26 138.54 455.09 138.56 453.88 C138.61 450.67 138.65 447.45 138.68 444.24 C138.71 440.84 138.76 437.45 138.81 434.05 C138.9 427.59 138.98 421.13 139.05 414.66 C139.15 405.3 139.28 395.93 139.4 386.56 C139.42 385.16 139.44 383.75 139.46 382.34 C139.47 381.65 139.48 380.96 139.49 380.25 C139.55 375.61 139.61 370.97 139.66 366.33 C139.81 353.49 140.06 340.66 140.47 327.82 C140.51 326.6 140.55 325.38 140.59 324.12 C140.95 313.7 141.69 303.35 143 293 C143.1 292.21 143.2 291.41 143.3 290.6 C146.23 268.55 154.41 251.3 169.5 235 C182.21 221.23 186.29 210.93 186.24 191.94 C185.94 187.02 184.91 182.53 183.56 177.8 C182.94 174.71 182.85 172.95 184 170 C190.49 165.37 200.54 162.1 208.52 163.41 C213.62 164.95 218.15 166.99 221.04 171.68 C223.72 177.46 222.61 182.04 221 188 C219.71 193.35 219.71 193.35 221.06 196.38 C223 198 223 198 225.94 198.56 C229 198 229 198 231.19 196 C235.81 188.35 237.05 181.58 235.64 172.71 C233.6 164.86 228.03 158.59 221.29 154.26 C215.01 151 215.01 151 211 151 C211.63 139.73 211.63 139.73 215 136 C217.62 134.69 219.2 134.74 221.97 135.63 C235.27 141.22 245.41 148.7 253 161 C253.44 161.71 253.88 162.42 254.33 163.15 C259.01 172 257.79 181.95 255.31 191.31 C252.3 200.7 248.19 207.02 241.53 214.22 C226.21 231.05 214.79 250.56 215 274 C216.38 296.54 228.98 311.5 245.16 325.92 C245.76 326.44 246.37 326.96 247 327.5 C262.37 340.67 274.04 356.11 285 373 C288.75 378.75 288.75 378.75 291 381 C293.38 381.44 293.38 381.44 296 381 C298.44 378.94 298.44 378.94 300 376 C298.91 370.36 296.52 366.04 293.44 361.25 C292.99 360.55 292.55 359.85 292.09 359.13 C286.32 350.2 279.41 342.32 272.25 334.48 C270.73 332.8 269.21 331.1 267.71 329.4 C263.79 324.94 259.82 320.81 255.3 316.96 C242.63 306.14 231.85 296.17 229 279 C227.88 260.27 233.68 243.69 245.86 229.35 C247.39 227.67 248.93 226.02 250.48 224.37 C261.89 212.24 268.62 198.93 270.81 182.38 C271.49 178.53 272.57 177.13 275.75 174.88 C276.46 174.41 277.17 173.95 277.91 173.47 C283.29 169.69 285.94 164.59 287.88 158.44 C290.83 149.9 296.49 146.6 304.29 142.72 C316.14 137.01 316.14 137.01 322 137 C324.84 138.1 327.31 139.68 329.88 141.31 C345.71 150.67 362.85 156.99 380.74 161.11 C381.64 161.32 382.53 161.53 383.46 161.75 C384.24 161.92 385.02 162.09 385.83 162.27 C388.31 163.11 389.94 164.41 392 166 C392.66 166 393.32 166 394 166 C394.33 166.99 394.66 167.98 395 169 C396.86 170.54 396.86 170.54 399.19 172.06 C399.94 172.57 400.7 173.08 401.48 173.6 C409.52 178.07 419.04 178.4 427.92 176.31 C438.99 172.19 446.28 164.83 451.32 154.21 C455.48 143.37 455.56 131.71 451.39 120.85 C446.69 111.2 440.51 104.11 430.52 99.98 C422.86 97.39 416.48 97.2 408.75 99.5 C388.36 104.95 369.88 99.31 352.13 89.24 C349.43 87.67 346.75 86.07 344.08 84.46 C299.68 57.81 248.11 38.89 196 37 C195.46 36.98 195.46 36.98 192.74 36.88 C177.58 36.59 162.51 38.22 147.69 41.38 Z M355 172 C354.15 188.43 361.67 206.44 368.16 221.16 C377.28 242.17 376.57 263.89 375.25 286.31 C375.21 287.05 375.16 287.79 375.12 288.55 C372.03 340.65 367.32 408.3 331 449 C326.96 452.55 323.3 453.26 318 453 C311.24 451.27 305.54 447.22 301 442 C297.61 435.83 295.24 429.13 292.87 422.52 C281.93 391.94 265.37 365.46 243 342 C242.16 341.1 241.32 340.2 240.46 339.27 C231.26 329.65 220.6 321.71 209.56 314.31 C192.22 302.26 182.25 282.86 175.92 263.17 C174.92 260.8 174.07 259.53 172 258 C168.44 258.12 168.44 258.12 165 259 C163 262 163 262 163.22 265.22 C168.77 292.08 186.25 314.4 208.24 329.77 C245.37 355.73 268.1 392.64 283.39 434.82 C288.47 448.64 295.33 457.67 308.8 464.05 C315.42 466.9 322.87 467.23 329.8 465.16 C348.31 456.6 358.45 433.72 365.27 415.64 C387.6 353.98 402.4 270.71 377.37 208.37 C373.51 198.7 370.83 189.24 369 179 C367.35 171.53 367.35 171.53 365.69 169 C361.08 166.27 357.98 168.05 355 172 Z M278 195 C277.56 198 277.56 198 278 201 C279.62 202.94 279.62 202.94 282 204 C286.25 204 289.54 202.34 293.31 200.56 C303.08 195.99 313.02 194.49 323.6 197.11 C329.77 199.39 335.83 203.08 339.81 208.38 C342 211 342 211 345.06 212.06 C348 212 348 212 350.38 211 C352.83 207.98 352.39 205.79 352 202 C345.89 193.14 335.41 186.2 325.02 183.47 C309.85 181.1 288.65 182.32 278 195 Z M202 206 C201.43 208.97 201.54 210.25 203.12 212.81 C205.93 214.59 207.74 214.46 211 214 C213.88 212.38 213.88 212.38 216 210 C216.53 206.76 216.57 204.96 214.88 202.12 C209.35 198.81 205.53 201.33 202 206 Z M299.25 394.25 C297.74 396.37 297.15 397.38 297 400 C298 403.69 298 403.69 300 407 C303.44 408.25 303.44 408.25 307 408 C309.56 406.06 309.56 406.06 311 403 C310.86 400.12 310.28 397.59 309 395 C305.53 392.69 302.86 391.67 299.25 394.25 Z " fill="currentColor" transform="translate(0,0)"/><path d="M0 0 C0.72 0 1.43 0 2.17 0.01 C30.35 0.14 57.44 6.03 84 15.31 C84.8 15.59 85.61 15.87 86.43 16.16 C111.88 25.19 136.03 37.15 159.06 51.19 C176.73 61.92 195.97 67.29 216.56 62.81 C233.13 59.26 233.13 59.26 240.38 63.31 C247.62 68.69 251.27 75.56 253 84.31 C253.82 91.95 251.67 99.33 247.31 105.62 C243.27 110.62 237.54 114.77 231.02 115.55 C224.21 115.78 219.16 114.16 214.06 109.56 C211.71 104.59 211.54 100.74 213.19 95.62 C217.4 87.93 222.81 83.84 230.94 80.75 C234 79.31 234 79.31 235.06 77.38 C234.98 74.69 234.68 73.43 233 71.31 C229.05 69.77 226.5 70.3 222.75 71.94 C220.29 73.12 217.9 74.37 215.52 75.7 C207.02 80.31 201.59 80.13 192.31 77.75 C185.78 75.8 180.14 72.98 174.25 69.61 C170.37 68.06 168.03 68.4 164 69.31 C163.25 72.06 163.25 72.06 163 75.31 C165.93 79.06 169.69 80.9 173.94 82.81 C174.59 83.11 175.25 83.41 175.93 83.73 C184 87.33 192.25 89.99 201 91.31 C200.67 94.28 200.34 97.25 200 100.31 C173.91 95.05 151.37 83.99 128.4 70.88 C87.38 47.65 42.29 22.79 -5.94 23 C-6.7 23 -7.46 23 -8.25 23 C-19.61 23.02 -30.62 23.74 -41.83 25.66 C-50.7 27.14 -50.7 27.14 -55.31 24.19 C-58.3 21 -59.09 19.65 -59 15.31 C-57.34 11.56 -55.38 9.55 -52 7.31 C-49.86 6.54 -49.86 6.54 -47.54 6 C-47.11 5.89 -47.11 5.89 -44.92 5.37 C-44.02 5.16 -43.12 4.96 -42.19 4.75 C-41.33 4.54 -40.47 4.33 -39.59 4.12 C-26.49 1.06 -13.43 -0.07 0 0 Z " fill="currentColor" transform="translate(189,49.6875)"/><path d="M0 0 C0.26 0.2 0.26 0.2 1.57 1.24 C7.55 5.86 12.69 7.99 20 10 C21.64 16.35 23.14 22.68 24.38 29.12 C26.57 39.35 30.5 47.61 39 54 C56.57 64.29 56.57 64.29 66 63 C67.94 61.31 67.94 61.31 69 59 C68.87 56.48 68.87 56.48 68 54 C65.92 52.85 65.92 52.85 63.19 52.06 C52.66 48.61 43.57 45.09 38 35 C36.59 31.73 35.75 28.48 35 25 C34.72 23.73 34.45 22.45 34.16 21.14 C32 10.86 32 10.86 32 7 C58.17 3.34 84.01 3.74 109 13 C109.88 13.32 110.75 13.65 111.66 13.98 C136.67 23.34 160.49 35.38 184 48 C181.24 50.93 178.42 52.44 174.81 54.25 C165.85 59.01 159.87 63.52 156 73 C155.3 74.61 154.59 76.21 153.88 77.81 C153.72 78.18 153.72 78.18 152.93 80.02 C152 82 152 82 150 85 C149.01 85 148.02 85 147 85 C146.62 84.13 146.24 83.26 145.86 82.36 C137.58 64.45 124.2 52.9 106 45.04 C100.07 42.99 95.49 43.1 89.75 45.62 C83.59 49.14 80.56 53.97 78.56 60.61 C77.67 64.4 77.31 68.13 77 72 C76.24 72.23 75.48 72.46 74.69 72.7 C68.66 74.6 63.3 76.68 57.94 80.05 C56 81 56 81 52 81 C50.46 79.86 50.46 79.86 48.94 78.31 C39.64 69.86 27.21 67.38 15.01 67.69 C5 68.26 -2.99 72.99 -10 80 C-12.75 80.4 -15.49 80.75 -18.25 81.06 C-18.63 81.11 -18.63 81.11 -20.57 81.34 C-22.71 81.58 -24.85 81.8 -27 82 C-27.92 82.1 -28.84 82.2 -29.79 82.31 C-33.84 81.74 -35.64 78.51 -38.13 75.52 C-44.22 67.31 -45.92 59.14 -45 49 C-43.09 40.35 -38.52 33.78 -33 27 C-32.33 26.17 -31.66 25.33 -30.97 24.47 C-22.41 14.37 -11.59 6.33 0 0 Z " fill="currentColor" transform="translate(121,79)"/><path d="M0 0 C5.44 3.9 8.75 8.34 11.34 14.49 C11.71 15.36 12.08 16.23 12.46 17.12 C13.67 21.74 13.56 26.11 13.47 30.87 C13.46 31.79 13.45 32.72 13.44 33.68 C13.42 35.95 13.39 38.22 13.34 40.49 C10.24 39.33 7.65 38.11 4.97 36.18 C-4.49 30.19 -15.63 27.99 -26.58 26.57 C-31.71 25.86 -35.75 24.96 -39.02 20.73 C-41.33 16.05 -43.12 11.7 -41.66 6.49 C-38.27 0.56 -33.58 -2.73 -27.18 -4.88 C-17.83 -7.2 -8.29 -4.71 0 0 Z " fill="currentColor" transform="translate(159.65625,163.5078125)"/>
</svg>