<svg fill="none" stroke="currentColor" viewBox="0 0 682.66669 682.66669" xmlns="http://www.w3.org/2000/svg"><defs><clipPath clipPathUnits="userSpaceOnUse" id="clipPath275"><path d="M 0,512 H 512 V 0 H 0 Z" /></clipPath></defs><g transform="matrix(1.3333333,0,0,-1.3333333,0,682.66667)"><g><g clip-path="url(#clipPath275)"><g transform="translate(466,259.9971)"><path d="m 0,0 h -280.41 l -9.601,40.002 c -1.284,5.348 -4.5,10 -10,10 h -119.99 c -5.499,0 -9.999,-4.502 -9.999,-10 v -280 c 0,-5.499 4.5,-10 9.999,-10 H 0 c 5.498,0 9.999,4.5 9.999,10 L 9.999,-10 C 9.999,-4.5 5.499,0 0,0 Z" style="fill:none;stroke:currentColor;stroke-width:20;stroke-linecap:round;stroke-linejoin:round;stroke-miterlimit:22.926;stroke-dasharray:none;stroke-opacity:1" /></g><g transform="translate(76.001,380.001)"><path d="M 0,0 V -60.001 M 32,122 h 288.001 c 17.674,0 32,-14.327 32,-32 V 74 H 64 V 90 C 64,107.673 49.673,122 32,122 14.327,122 0,107.673 0,90 M 320,33.999 V 64" style="fill:none;stroke:currentColor;stroke-width:20;stroke-linecap:round;stroke-linejoin:round;stroke-miterlimit:22.926;stroke-dasharray:none;stroke-opacity:1" /></g><g transform="translate(147.9976,404)"><path d="m 0,0 h 288.001 c 17.674,0 32,-14.327 32,-32 V -48 H 32 v 16 C 32,-14.327 17.673,0 0,0 -17.673,0 -32,-14.327 -32,-32 v -52 m 320,-50.002 V -58" style="fill:none;stroke:currentColor;stroke-width:20;stroke-linecap:round;stroke-linejoin:round;stroke-miterlimit:22.926;stroke-dasharray:none;stroke-opacity:1" /></g><g transform="translate(195.9995,122.498)"><path d="m 0,0 v 25 c 0,5.5 4.5,10 10,10 h 27.5 v 27.5 c 0,5.5 4.5,10 10,10 h 25 c 5.5,0 10,-4.5 10,-10 V 35 H 110 c 5.5,0 10,-4.5 10,-10 V 0 c 0,-5.5 -4.5,-10 -10,-10 H 82.5 v -27.5 c 0,-5.5 -4.5,-10 -10,-10 h -25 c -5.5,0 -10,4.5 -10,10 V -10 H 10 C 4.5,-10 0,-5.5 0,0 Z" style="fill:none;stroke:currentColor;stroke-width:20;stroke-linecap:round;stroke-linejoin:round;stroke-miterlimit:22.926;stroke-dasharray:none;stroke-opacity:1" /></g><g transform="translate(76.0005,425.0049)"><path d="M 0,0 V -0.007" style="fill:none;stroke:currentColor;stroke-width:20;stroke-linecap:round;stroke-linejoin:round;stroke-miterlimit:2.613;stroke-dasharray:none;stroke-opacity:1" /></g></g></g></g></svg>