<svg xmlns="http://www.w3.org/2000/svg" viewBox="0 0 192.419 203.68" fill="currentColor"><path d="m187.153 53.269c-41.11-14.965-75.654-16.473-85.026-16.589-1.998 2.853-4.593 5.28-7.636 7.077-1.188 3.002-3.466 5.675-6.641 7.369-6.615 3.529-14.594 1.509-18.042-4.478-3.228 1.199-6.456 2.398-9.684 3.596-.138.053-.277.128-.415.194-.469.121-.934.28-1.389.491l-27.196 12.656c-1.742-3.637-3.958-8.258-6.179-12.878-1.406-2.925-2.811-5.842-4.103-8.516-8.203-1.11-15.007-6.673-17.893-14.171-2.11 1.724-3.268 4.463-2.873 7.303.161 1.153.559 2.215 1.14 3.142 1.647 3.188 12.327 25.433 18.891 39.164 1.373 2.871 4.236 4.552 7.223 4.552 1.13 0 2.279-.241 3.37-.749l27.79-12.934c10.242 12.935 14.786 23.299 13.334 48.849-.111 1.112-.381 2.543-.621 4.032-.134.443-.25.895-.336 1.361l-5.47 29.587 23.95 7.967 6.103-33.009c.177-.957.228-1.906.187-2.838.012-.004.024-.008.036-.011.803.505 1.668.935 2.604 1.256l36.951 12.654 17.858-20.31-36.727-12.578c1.884-19.393 2.714-33.719-2.21-52.099 14.812 1.259 39.739 4.83 67.532 14.947.903.329 1.827.484 2.736.484 3.268 0 6.335-2.018 7.518-5.266 1.511-4.153-.63-8.743-4.782-10.255z"/><path d="m64.599 156.64-40.385 22.633c-6.022 3.375-8.168 10.993-4.793 17.016 2.292 4.089 6.54 6.391 10.916 6.391 2.069 0 4.167-.515 6.1-1.598l45.5-25.499c3.241-1.815 5.505-4.979 6.181-8.632l.497-2.687-23.95-7.967z"/><path d="m140.244 140.062 11.449 53.721c1.252 5.874 6.439 9.897 12.213 9.897.863 0 1.74-.091 2.618-.277 6.752-1.439 11.059-8.079 9.62-14.831l-12.925-60.646c-.762-3.576-3.053-6.581-6.192-8.316l-17.705 20.137z"/><circle cx="23.86" cy="20" r="20"/><ellipse cx="82.067" cy="22.643" rx="22.5" ry="22.5" transform="matrix(.991 -.136 .136 .991 -2.32 11.394)"/></svg>
