<svg fill="currentColor" viewBox="0 0 32 32" xmlns="http://www.w3.org/2000/svg"><g><path d="m29 24v-2a2 2 0 0 0 -2-2h-2a2 2 0 0 0 -2 2v2h-6v-2a2 2 0 0 0 -2-2h-2a2 2 0 0 0 -2 2v2a1 1 0 0 0 0 2v2a2 2 0 0 0 2 2h2a2 2 0 0 0 2-2v-2h6v2a2 2 0 0 0 2 2h2a2 2 0 0 0 2-2v-2a1 1 0 0 0 0-2zm-14 4h-2v-6h2zm10 0v-6h2v3 3z"/><path d="m7 15a1 1 0 1 0 1 1 1 1 0 0 0 -1-1z"/><path d="m16 15h-5a1 1 0 0 0 0 2h5a1 1 0 0 0 0-2z"/><path d="m7 11a1 1 0 1 0 1 1 1 1 0 0 0 -1-1z"/><path d="m16 11h-5a1 1 0 0 0 0 2h5a1 1 0 0 0 0-2z"/><path d="m7 19a1 1 0 1 0 1 1 1 1 0 0 0 -1-1z"/><path d="m14 8a3 3 0 0 0 3-3h2v16a1 1 0 0 0 2 0v-16a2 2 0 0 0 -2-2h-2.28a2 2 0 0 0 -1.72-1h-7a2 2 0 0 0 -1.72 1h-2.28a2 2 0 0 0 -2 2v23a2 2 0 0 0 2 2h4a1 1 0 0 0 0-2h-4v-23h2a3 3 0 0 0 3 3zm-6-3v-1h7v1a1 1 0 0 1 -1 1h-5a1 1 0 0 1 -1-1z"/><path d="m7 23a1 1 0 1 0 1 1 1 1 0 0 0 -1-1z"/></g></svg>