<svg viewBox="0 0 74 74" fill="currentColor" xmlns="http://www.w3.org/2000/svg"><g><path d="m34.47 48.22c.07 1.29.76 2.44 1.76 2.95.42.21.87.32 1.32.32.44 0 .88-.1 1.3-.3 1.04-.5 1.83-1.55 2.09-2.82.14-.65.13-1.3-.02-1.91-.2-.83-.18-1.84.06-3l.03-.13c.16-.74.37-1.33.66-1.79.23-.37.39-.77.48-1.2.18-.84.06-1.68-.3-2.37.16-.07.32-.15.47-.24.77-.5 1.26-1.31 1.35-2.22.05-.53-.04-1.07-.26-1.55-.26-.56-.35-1.26-.26-2.17.05-.52.17-.93.35-1.25s.29-.67.33-1.03c.07-.65-.13-1.29-.51-1.8.03-.02.06-.03.09-.05.77-.5 1.26-1.31 1.35-2.22.05-.53-.04-1.07-.26-1.55-.26-.56-.35-1.26-.26-2.17.05-.52.17-.93.35-1.25s.29-.67.33-1.03c.06-.6-.09-1.19-.41-1.68.12-.07.23-.14.33-.23.66-.53 1.03-1.32 1.03-2.16 0-.5-.13-.98-.38-1.4-.27-.46-.41-1.06-.41-1.87 0-.45.06-.82.2-1.11.14-.31.21-.65.21-.98 0-.73-.33-1.42-.9-1.88s-1.31-.63-2.04-.47c-.82.18-1.5.79-1.76 1.61-.18.57-.14 1.18.1 1.71.13.29.2.66.2 1.11v.54c0 .42-.14.87-.42 1.36-.4.69-.47 1.49-.22 2.26.09.28.24.54.42.77-.4.27-.73.65-.93 1.11-.25.6-.28 1.26-.07 1.86.12.35.15.77.1 1.29l-.06.6c-.05.49-.26.98-.63 1.51-.5.7-.67 1.56-.48 2.42.12.55.41 1.04.81 1.43-.31.26-.58.58-.74.97-.25.6-.28 1.26-.07 1.86.12.35.15.78.1 1.29l-.06.59c-.05.49-.26.98-.64 1.52-.5.7-.67 1.56-.48 2.42.08.38.27.73.5 1.05-.49.3-.91.76-1.19 1.33-.34.7-.47 1.47-.36 2.21.08.53.04 1.16-.12 1.9l-.17.79c-.15.71-.49 1.42-1.04 2.14-.62.82-.93 1.85-.87 2.91zm7.51-33.48c.42-.73.62-1.42.62-2.11v-.54c0-.67-.11-1.23-.33-1.73-.09-.2-.1-.43-.04-.65.09-.3.35-.53.65-.6.07-.02.15-.02.22-.02.21 0 .4.07.56.2.22.18.34.44.34.71 0 .12-.03.25-.08.37-.22.49-.33 1.05-.33 1.81 0 .99.21 1.85.62 2.55.11.19.17.41.17.64 0 .39-.17.75-.48.99-.31.25-.71.34-1.12.25s-.78-.42-.91-.82c-.14-.46-.01-.83.11-1.05zm-1.48 9.52c.54-.75.83-1.49.91-2.24l.06-.6c.07-.73.02-1.36-.17-1.92-.09-.25-.08-.53.03-.79.15-.35.49-.6.86-.65.05-.01.1-.01.15-.01.3 0 .57.11.78.31.24.24.36.56.32.9-.02.15-.06.3-.14.44-.29.51-.47 1.11-.55 1.94-.11 1.09.03 2.05.4 2.86.11.24.16.5.13.77-.04.46-.29.86-.68 1.12-.4.26-.88.32-1.35.17-.49-.16-.87-.58-.98-1.08-.13-.55.05-.96.23-1.22zm-1.09 10.09c.54-.75.83-1.49.91-2.24l.06-.59c.07-.73.02-1.36-.17-1.92-.09-.26-.08-.53.03-.79.15-.35.49-.6.86-.65.05-.01.1-.01.15-.01.3 0 .57.11.78.31.24.24.36.56.32.9-.01.15-.06.3-.14.44-.29.51-.47 1.11-.55 1.94-.11 1.09.03 2.05.4 2.86.11.24.16.5.13.77-.04.46-.29.86-.68 1.12-.29.19-.63.27-.98.24-.17-.07-.35-.12-.53-.15-.41-.19-.72-.56-.82-1-.13-.56.05-.98.23-1.23zm-2.88 11.88c.68-.91 1.11-1.8 1.31-2.73l.16-.8c.2-.92.24-1.71.14-2.43-.07-.44.01-.9.22-1.33.26-.52.73-.89 1.16-.91h.06c.01 0 .02.01.03.01.03.01.05.03.08.04.12.04.24.06.36.09.11.06.21.13.3.24.34.39.46 1.02.33 1.64-.05.25-.15.5-.29.72-.38.61-.66 1.35-.85 2.27l-.03.13c-.29 1.38-.31 2.61-.05 3.67.1.39.1.81.01 1.24-.17.8-.66 1.48-1.27 1.77-.3.15-.77.26-1.29 0-.53-.26-.9-.94-.94-1.69-.04-.72.16-1.4.56-1.93z"/><path d="m20.2 19.08c-.35.47-.53 1.05-.51 1.65.01.36.11.71.27 1.05.17.33.26.75.28 1.36.03.83-.09 1.52-.38 2.06-.25.48-.37.99-.34 1.53.04.92.48 1.75 1.22 2.3.03.02.06.03.08.05-.41.49-.64 1.12-.61 1.78.02.36.11.72.27 1.05.17.33.26.75.28 1.36.03.83-.09 1.52-.38 2.06-.25.48-.37.99-.35 1.54.04.92.48 1.75 1.22 2.3.12.09.24.16.37.23-.37.57-.52 1.25-.42 1.93.06.38.2.75.41 1.09.23.35.38.8.47 1.39l.02.1c.14.91.08 1.7-.18 2.35-.22.54-.28 1.11-.19 1.68.15.97.72 1.82 1.58 2.31.5.29 1.07.44 1.64.44.41 0 .82-.07 1.21-.23.77-.3 1.41-.91 1.76-1.65.34.46.76.83 1.26 1.04.36.15.72.22 1.09.22.49 0 .98-.13 1.44-.4 1.05-.61 1.79-1.82 1.96-3.23.08-.69.03-1.36-.17-1.99-.27-.88-.33-1.97-.18-3.25l.02-.14c.1-.82.27-1.47.53-2 .2-.41.32-.84.38-1.29.11-.92-.08-1.8-.51-2.49.16-.09.32-.18.47-.3.72-.57 1.14-1.42 1.15-2.33.01-.54-.13-1.06-.39-1.52-.31-.54-.46-1.22-.45-2.14.01-.52.08-.94.24-1.28s.24-.69.24-1.06c.01-.66-.24-1.27-.67-1.75.03-.02.06-.03.08-.05.72-.57 1.14-1.42 1.15-2.33.01-.54-.13-1.06-.39-1.52-.31-.53-.46-1.22-.45-2.14.01-.52.08-.94.24-1.28s.24-.69.24-1.06c.01-.6-.19-1.18-.56-1.64.11-.08.22-.16.32-.25.61-.58.92-1.4.84-2.24-.04-.5-.21-.96-.5-1.36-.3-.45-.48-1.03-.56-1.84-.04-.45-.01-.82.1-1.12.11-.32.15-.66.12-.99-.06-.73-.45-1.38-1.06-1.79-.6-.41-1.35-.52-2.07-.29-.8.25-1.42.92-1.61 1.76-.13.59-.04 1.19.25 1.7.16.28.25.63.29 1.09l.05.53c.04.42-.06.88-.3 1.4-.33.72-.34 1.53-.03 2.27.12.27.29.51.49.73-.38.31-.67.71-.83 1.19-.2.62-.17 1.28.09 1.86.15.34.22.76.21 1.28l-.01.6c-.01.49-.17 1-.5 1.57-.44.75-.53 1.62-.27 2.45.17.53.5 1 .93 1.36-.29.28-.52.63-.65 1.03-.2.62-.17 1.28.09 1.86.15.34.22.76.21 1.28l-.01.6c-.01.49-.17 1-.5 1.57-.44.75-.54 1.62-.27 2.45.12.38.34.72.6 1.02-.47.37-.87.9-1.11 1.55-.28.77-.34 1.57-.18 2.33.12.57.13 1.25.03 2.07l-.1.86c-.1.79-.38 1.58-.88 2.43-.24.41-.4.85-.51 1.32-.32-.47-.52-.92-.59-1.37l-.1-.65c-.09-.58-.08-1.06.03-1.46.19-.66.12-1.36-.19-2-.23-.46-.58-.84-1-1.1.22-.29.41-.61.51-.96.24-.85.12-1.71-.34-2.44-.35-.56-.53-1.06-.55-1.55l-.03-.63c-.02-.52.03-.94.17-1.28.24-.59.25-1.25.03-1.87-.14-.39-.39-.73-.68-1 .41-.37.73-.85.88-1.38.24-.84.12-1.71-.34-2.44-.35-.55-.53-1.06-.55-1.55l-.03-.6c-.02-.52.03-.94.17-1.28.24-.59.25-1.25.03-1.87-.17-.47-.48-.86-.87-1.16.19-.22.36-.47.46-.74.29-.75.26-1.56-.1-2.27-.25-.51-.37-.96-.34-1.39l.03-.53c.03-.45.11-.81.25-1.09.27-.52.35-1.13.2-1.72-.21-.82-.85-1.48-1.66-1.7-.72-.2-1.47-.07-2.06.36s-.96 1.09-1 1.82c-.02.33.04.67.16.99.11.3.16.66.13 1.2-.04.72-.21 1.31-.51 1.76-.27.41-.43.88-.46 1.37-.05.84.29 1.65.91 2.21.11.09.22.16.33.24zm13.67 13.55c0 .46-.22.88-.58 1.17-.27.22-.6.32-.94.33-.18-.06-.38-.1-.57-.11-.41-.16-.75-.49-.89-.92-.17-.55-.02-.98.13-1.24.47-.8.7-1.55.71-2.31l.01-.6c.01-.74-.1-1.36-.34-1.9-.11-.25-.12-.52-.04-.79.12-.36.43-.65.8-.72.08-.02.17-.03.25-.03.26 0 .5.08.7.25.26.21.41.53.4.87 0 .15-.04.3-.1.45-.25.53-.37 1.15-.38 1.98-.01 1.1.21 2.04.65 2.81.13.23.19.49.19.76zm-2.26-15.72c-.11-.25-.12-.52-.04-.79.12-.36.43-.64.8-.72.08-.02.17-.03.25-.03.26 0 .5.08.7.25.26.21.41.53.4.87 0 .15-.04.3-.1.45-.25.53-.37 1.15-.38 1.98-.01 1.1.2 2.04.65 2.81.13.23.2.49.2.76 0 .46-.22.89-.58 1.17-.37.3-.84.4-1.33.28-.5-.11-.92-.5-1.07-.99-.17-.55-.02-.98.13-1.24.47-.8.7-1.55.71-2.31l.01-.6c-.01-.73-.12-1.35-.35-1.89zm.08-9.83c.07-.3.3-.56.59-.65.1-.03.2-.05.29-.05.18 0 .35.05.5.15.23.15.38.4.4.67.01.12-.01.25-.05.37-.18.5-.23 1.08-.17 1.83.09.99.37 1.83.84 2.48.13.18.21.39.23.62.03.38-.11.76-.39 1.03-.29.28-.68.4-1.09.35-.42-.05-.81-.35-.97-.74-.19-.44-.1-.82.01-1.05.35-.76.49-1.47.43-2.15l-.05-.53c-.06-.67-.21-1.22-.48-1.69-.11-.19-.14-.42-.09-.64zm-2.57 37.49c.6-1.02.95-2.01 1.07-3.01l.1-.86c.12-.99.1-1.82-.05-2.57-.11-.48-.06-1 .12-1.49.22-.6.67-1.05 1.1-1.12.03 0 .05 0 .08-.01.03.01.05.02.08.03.11.03.22.02.34.04.1.05.2.11.29.2.4.38.6 1.09.51 1.81-.03.28-.12.57-.24.82-.33.68-.54 1.49-.66 2.47l-.02.14c-.18 1.49-.1 2.79.23 3.87.13.42.17.88.11 1.36-.11.93-.58 1.74-1.22 2.11-.39.23-.79.26-1.19.09-.55-.23-.98-.93-1.08-1.74-.09-.75.06-1.52.43-2.14zm-2.76 1.79c.22.28.46.74.35 1.4-.09.58-.51 1.09-1.06 1.3-.53.2-1.09.17-1.56-.11-.46-.27-.77-.72-.85-1.24-.05-.31-.01-.61.1-.9.36-.89.45-1.95.26-3.13l-.02-.1c-.12-.79-.35-1.44-.69-1.97-.1-.16-.17-.33-.19-.5-.06-.39.06-.78.32-1.07.15-.17.35-.27.56-.34.1-.02.2-.01.29-.04.04-.01.07-.03.1-.04h.01.09c.44.03.85.3 1.04.7.15.3.18.62.09.93-.17.62-.19 1.3-.07 2.09l.1.65c.14.81.5 1.59 1.13 2.37zm-1.83-9.17c-.12.44-.47.79-.89.96-.17.02-.34.06-.5.12-.35.02-.69-.09-.98-.3-.37-.27-.6-.69-.62-1.15-.01-.27.05-.53.17-.77.42-.78.6-1.73.55-2.92-.03-.74-.17-1.35-.44-1.87-.07-.14-.11-.29-.12-.44-.01-.34.12-.66.38-.88.2-.18.45-.27.72-.27.07 0 .14.01.21.02.37.06.69.34.82.69.1.27.09.55-.01.8-.22.54-.31 1.17-.28 1.9l.03.6c.03.76.29 1.5.78 2.29.18.24.34.66.18 1.22zm-.52-10.13c-.14.49-.54.89-1.04 1.02-.48.13-.95.04-1.34-.24-.37-.27-.6-.69-.62-1.15-.01-.27.05-.53.17-.77.42-.78.6-1.73.55-2.92-.03-.74-.17-1.35-.43-1.87-.07-.14-.11-.3-.12-.45-.01-.34.12-.66.37-.88s.59-.31.94-.25c.37.06.69.34.82.69.1.27.09.55-.01.8-.22.54-.31 1.17-.28 1.9l.03.6c.03.76.29 1.5.78 2.29.17.25.34.67.18 1.23zm-3.34-10.98c.45-.67.7-1.51.76-2.59.04-.67-.04-1.24-.23-1.74-.05-.12-.07-.25-.06-.37.02-.28.15-.53.38-.69s.51-.21.79-.13c.29.08.54.33.61.63.06.23.03.45-.08.66-.25.48-.38 1.03-.42 1.7l-.03.54c-.04.69.13 1.39.5 2.14.12.23.22.6.04 1.05-.15.39-.53.7-.95.76s-.8-.05-1.1-.31c-.29-.26-.44-.63-.42-1.02.01-.23.08-.44.21-.63z"/><path d="m19.02 51.26c1.01-.41 1.75-1.37 1.91-2.44.13-.91-.12-1.8-.7-2.5-.45-.54-.72-1.06-.81-1.59l-.12-.63c-.1-.56-.1-1.02 0-1.4.17-.64.09-1.33-.23-1.95-.21-.41-.53-.74-.9-.98.4-.45.68-1 .77-1.6.13-.91-.12-1.8-.7-2.5-.45-.54-.72-1.06-.81-1.59l-.11-.63c-.1-.55-.1-1.01 0-1.4.17-.64.09-1.33-.23-1.95-.25-.48-.65-.85-1.11-1.11.18-.27.34-.56.42-.88.2-.82.05-1.66-.41-2.35-.35-.51-.53-.98-.57-1.44l-.04-.57c-.04-.49 0-.89.12-1.21.21-.58.2-1.22-.03-1.81-.33-.82-1.09-1.41-1.96-1.54-.77-.1-1.54.13-2.09.65-.56.52-.85 1.26-.79 2.03.03.35.13.69.3 1.01.17.3.27.69.31 1.27.06.78-.04 1.44-.29 1.96-.23.46-.33.98-.29 1.49.07.88.52 1.67 1.25 2.18.13.09.28.17.42.24-.33.55-.45 1.19-.33 1.83.07.37.21.73.43 1.05.23.33.38.77.48 1.32l.02.1c.16.88.12 1.64-.12 2.26-.2.53-.25 1.08-.15 1.65.17.95.75 1.76 1.59 2.22.05.03.1.04.15.06-.39.58-.55 1.28-.43 1.98.07.37.21.73.43 1.05.23.33.38.77.48 1.32l.02.1c.16.88.12 1.64-.12 2.26-.2.52-.25 1.09-.15 1.65.17.95.75 1.76 1.59 2.22.48.26 1 .39 1.53.39.44.02.86-.06 1.27-.22zm-6.31-27.31c-.06-.71-.21-1.29-.48-1.78-.07-.13-.11-.27-.12-.41-.02-.31.09-.61.32-.82.19-.18.43-.27.7-.27.05 0 .11 0 .16.01.34.05.65.29.78.61.1.25.1.5.01.74-.19.53-.26 1.13-.2 1.84l.04.57c.06.73.33 1.44.82 2.17.16.24.33.63.2 1.15-.11.46-.48.84-.94.98-.44.13-.89.07-1.25-.18-.35-.24-.58-.63-.61-1.05-.02-.25.03-.49.14-.72.37-.78.52-1.7.43-2.84zm1.43 14.02c-.05-.3-.03-.59.08-.86.33-.88.39-1.9.19-3.05l-.02-.1c-.14-.77-.37-1.39-.72-1.9-.1-.15-.17-.31-.2-.47-.07-.37.04-.74.28-1.03.24-.27.57-.42.94-.42h.06c.42.02.81.27 1.01.64.15.28.18.59.11.89-.15.6-.16 1.27-.02 2.03l.11.63c.14.79.51 1.54 1.14 2.29.22.26.46.7.37 1.33-.08.55-.46 1.05-.99 1.26-.5.21-1.04.18-1.49-.07-.46-.24-.76-.67-.85-1.17zm2.82 11.83c-.45-.25-.75-.67-.84-1.17-.05-.3-.03-.59.08-.86.33-.88.39-1.9.19-3.05l-.02-.1c-.14-.77-.37-1.39-.72-1.9-.1-.15-.17-.31-.2-.47-.07-.37.04-.74.29-1.03.25-.28.6-.41 1-.42.42.02.81.27 1.01.64.15.28.18.59.1.88-.15.6-.16 1.27-.02 2.03l.11.63c.14.79.51 1.54 1.14 2.29.22.26.46.7.37 1.33-.08.56-.46 1.05-.99 1.26-.51.21-1.04.19-1.5-.06z"/><path d="m63.31 33.43c-.19-.74-.7-1.35-1.41-1.68-.8-.37-1.75-.27-2.48.25-.51.37-.86.9-.99 1.5-.08.34-.26.7-.55 1.09l-.34.46c-.28.37-.69.67-1.25.91-.77.33-1.34.95-1.61 1.75-.11.31-.13.64-.13.97-.53-.04-1.06.06-1.54.34-.59.34-1.03.88-1.23 1.51-.13.38-.38.77-.76 1.19l-.43.47c-.36.39-.86.69-1.54.9-.87.27-1.55.89-1.93 1.73-.26.57-.31 1.2-.21 1.81-1.6-.04-2.23 1.19-2.67 2.06-.21.42-.42.81-.67 1.04-2.34 1.02-3.82 2.65-3.99 4.37-.09 1.01.32 1.93 1.1 2.45.47.31 1.02.47 1.64.47.75 0 1.59-.23 2.45-.68.2-.1.34-.29.38-.5.35-1.62 1.5-2.67 2.52-3.6.95-.87 1.86-1.69 1.9-2.84 0-.05-.01-.1-.01-.15.09.01.18.04.27.05.07 0 .14.01.21.01.89 0 1.73-.37 2.33-1.02.38-.42.65-.92.76-1.47.14-.65.52-1.31 1.12-1.97l.06-.07c.38-.42.75-.7 1.13-.86.36-.16.67-.38.92-.65.44-.48.69-1.09.71-1.73.13.02.25.04.38.04h.1c.89-.03 1.7-.45 2.23-1.16.31-.42.51-.9.56-1.41.07-.58.34-1.19.86-1.88.3-.39.59-.67.9-.84s.58-.41.79-.69c.46-.65.61-1.43.42-2.17zm-16.66 17.69c-1.06.97-2.36 2.16-2.89 4.03-.93.43-1.77.49-2.27.15-.33-.22-.48-.6-.44-1.07.09-.92.97-2.23 3.18-3.17.06-.02.11-.06.16-.09.56-.43.88-1.05 1.16-1.6.4-.78.64-1.25 1.29-1.25.18 0 .4.04.66.11.38.43.57.8.56 1.09-.02.53-.67 1.12-1.41 1.8zm8.6-8.9c-.11.12-.26.22-.42.29-.57.24-1.1.64-1.63 1.22l-.06.07c-.79.86-1.28 1.75-1.48 2.67-.06.29-.2.54-.4.77-.34.37-.83.56-1.34.54-.52-.03-.98-.3-1.3-.74-.33-.46-.39-1.09-.15-1.6.26-.57.7-.82 1.02-.92.93-.3 1.65-.73 2.19-1.32l.43-.47c.53-.57.88-1.14 1.08-1.73.09-.29.29-.52.56-.68.19-.11.4-.16.61-.16s.42.05.59.16c.34.2.56.51.62.89.05.36-.07.73-.32 1.01zm6.43-7.55c-.08.11-.19.2-.32.27-.49.27-.94.68-1.42 1.32-.63.84-1 1.7-1.1 2.54-.03.25-.12.47-.27.68-.26.34-.65.55-1.08.56-.46.03-.85-.17-1.16-.52-.31-.36-.41-.88-.26-1.33.17-.51.52-.75.78-.86.81-.35 1.42-.8 1.86-1.39l.34-.46c.43-.57.69-1.11.82-1.67.05-.24.2-.46.4-.61.17-.12.38-.18.59-.18.14 0 .27.03.4.08.3.14.51.38.58.68.1.32.03.63-.16.89z"/><path d="m35.45 54.32c-.85-.21-1.63-.12-2.28.21-.08-.42-.21-.8-.45-1.12-1.08-1.47-4.29-1.59-5.24-1.59-.9 0-3.8.12-5.03 1.37-.88-1.1-1.98-1.08-2.49-1-1.65.29-3.15 2.06-3.22 3.8-.03.64.15 2.08 1.96 2.85-1.09 1.81-1.51 4.44-.42 6.07.38.57 1.15 1.31 2.61 1.31.53 0 1.14-.1 1.86-.34.4 1.46 1.36 2.24 2.14 2.63.81.41 1.76.6 2.77.6 2.91 0 6.25-1.57 7.7-3.96.23-.38.51-.96.64-1.68 3.46-.7 4.07-2.57 4.11-3.64.09-2.44-2.43-4.97-4.66-5.51zm-12.01-.01c.35-.47 1.88-.98 4.03-.98s3.69.5 4.03.98c.54.73.2 2.75-.79 4.71-.97 1.92-2.3 3.26-3.23 3.26-.94 0-2.28-1.35-3.25-3.28-.98-1.96-1.32-3.97-.79-4.69zm-5.2 1.75c.04-1.03 1.02-2.21 1.98-2.38.62-.1 1.11.28 1.46 1.14.01.03.04.05.05.08-.06.58 0 1.22.14 1.87-.75-.04-1.5.25-2.17.84-.99-.28-1.49-.8-1.46-1.55zm1.28 8.03c-.81-1.21-.29-3.88 1.01-5.21.81-.83 1.48-.63 1.83-.44.16.43.34.85.53 1.23.11.22.29.54.52.92-.59 1.51-.84 2.76-.85 3.78-1.08.4-2.42.64-3.04-.28zm14.56.29c-1.54 2.54-6.08 4.04-8.51 2.81-1.88-.95-1.65-3.28-1.09-5.12.8.91 1.83 1.71 3 1.71 2.33 0 4.09-3.12 4.57-4.08.1-.2.2-.42.3-.64 1.63 1.32 3.01 3.21 1.73 5.32zm1.93-2.43c-.21-1.29-1.04-2.81-3.12-4.37.09-.29.16-.58.21-.87.01-.01.02-.02.02-.03.39-.83 1.04-1.12 1.97-.89 1.76.43 3.57 2.48 3.51 4-.04 1.24-1.31 1.85-2.59 2.16z"/></g></svg>